<svg width="24" height="24" viewBox="0 0 24 24" fill="none" xmlns="http://www.w3.org/2000/svg">
<path d="M5.29827 16.16C3.90692 14.9015 2.93275 13.5249 2.42012 12.7132C2.28394 12.4975 2.21584 12.3897 2.17772 12.2234C2.14909 12.0985 2.14909 11.9015 2.17772 11.7766C2.21584 11.6103 2.28394 11.5025 2.42012 11.2868C3.54553 9.50484 6.8954 5 12.0004 5C13.3429 5 14.564 5.31153 15.6552 5.80315M8.15797 18.1099C9.29625 18.6515 10.5804 19 12.0004 19C17.1054 19 20.4553 14.4952 21.5807 12.7132C21.7169 12.4975 21.785 12.3897 21.8231 12.2234C21.8517 12.0985 21.8517 11.9015 21.8231 11.7766C21.785 11.6103 21.7169 11.5025 21.5807 11.2868C21.0504 10.4472 20.0263 9.00306 18.5574 7.71048M9.17111 13C9.06056 12.6872 9.0004 12.3506 9.0004 12C9.0004 10.3431 10.3435 9 12.0004 9C12.351 9 12.6876 9.06015 13.0004 9.17071M11.0004 14.8293C11.3132 14.9398 11.6498 15 12.0004 15C13.6573 15 15.0004 13.6569 15.0004 12C15.0004 11.6494 14.9402 11.3128 14.8297 11" stroke="black" strokeLinecap="round" strokeLinejoin="round"/>
<path d="M21 3L3 21" stroke="black" strokeLinecap="round"/>
</svg>
