<svg width="485" height="206" viewBox="0 0 485 206" fill="none" xmlns="http://www.w3.org/2000/svg">
<path d="M155.863 164.344H133.787V203.086H80.2642V164.344H0.5V124.768L83.8047 2.91797H133.787V123.935H155.863V164.344ZM80.2642 123.935V100.607C80.2642 96.2324 80.4725 90.4003 80.6807 82.9018C81.0973 75.4033 81.3055 71.6541 81.5138 71.2375H80.0559C76.932 78.3194 73.3916 84.7764 69.4346 91.0251L47.3589 123.935H80.2642Z" fill="url(#paint0_radial_651_30975)"/>
<path d="M314.558 103.312C314.558 138.722 308.519 164.758 296.856 181.213C284.985 197.668 266.867 206 242.292 206C218.342 206 200.431 197.46 188.144 180.172C176.064 162.884 170.025 137.264 170.025 103.312C170.025 67.6946 175.856 41.6582 187.935 24.9949C199.806 8.33165 217.925 0 242.5 0C266.242 0 284.361 8.74823 296.44 26.0364C308.519 43.3246 314.558 68.9444 314.558 103.312ZM223.756 103.312C223.756 126.016 225.214 141.638 227.922 149.97C230.837 158.51 235.419 162.675 242.083 162.675C248.748 162.675 253.538 158.301 256.453 149.553C259.161 140.805 260.619 125.391 260.619 103.312C260.619 81.0253 259.161 65.6117 256.453 56.6552C253.538 47.6987 248.956 43.3246 242.292 43.3246C235.627 43.3246 230.837 47.6987 228.13 56.2386C225.214 64.7786 223.756 80.4004 223.756 103.312Z" fill="url(#paint1_radial_651_30975)"/>
<path d="M484.5 164.344H462.424V203.086H408.901V164.344H329.137V124.768L412.441 2.91797H462.424V123.935H484.5V164.344ZM409.109 123.935V100.607C409.109 96.2324 409.317 90.4003 409.526 82.9018C409.942 75.4033 410.15 71.6541 410.359 71.2375H408.901C405.777 78.3194 402.237 84.7764 398.28 91.0251L375.996 124.143H409.109V123.935Z" fill="url(#paint2_radial_651_30975)"/>
<defs>
<radialGradient id="paint0_radial_651_30975" cx="0" cy="0" r="1" gradientUnits="userSpaceOnUse" gradientTransform="translate(78.1021 131.173) rotate(89.9656) scale(132.385 102.753)">
<stop stop-color="#024584"/>
<stop offset="1" stop-color="#0B233D"/>
</radialGradient>
<radialGradient id="paint1_radial_651_30975" cx="0" cy="0" r="1" gradientUnits="userSpaceOnUse" gradientTransform="translate(242.218 131.992) rotate(89.9689) scale(136.242 95.5904)">
<stop stop-color="#024584"/>
<stop offset="1" stop-color="#0B233D"/>
</radialGradient>
<radialGradient id="paint2_radial_651_30975" cx="0" cy="0" r="1" gradientUnits="userSpaceOnUse" gradientTransform="translate(406.739 131.173) rotate(89.9656) scale(132.385 102.753)">
<stop stop-color="#024584"/>
<stop offset="1" stop-color="#0B233D"/>
</radialGradient>
</defs>
</svg>
