<svg width="465" height="205" viewBox="0 0 465 205" fill="none" xmlns="http://www.w3.org/2000/svg">
<g filter="url(#filter0_i_1_6)">
<path d="M464.371 84.2852V120.652C464.371 134.962 462.685 147.404 459.312 157.977C456.031 168.549 451.292 177.299 445.094 184.227C438.987 191.154 431.695 196.303 423.219 199.676C414.742 203.048 405.4 204.734 395.191 204.734C386.988 204.734 379.332 203.686 372.223 201.59C365.113 199.402 358.688 196.121 352.945 191.746C347.294 187.28 342.418 181.72 338.316 175.066C334.215 168.413 331.07 160.574 328.883 151.551C326.695 142.436 325.602 132.137 325.602 120.652V84.2852C325.602 69.8841 327.242 57.4427 330.523 46.9609C333.896 36.388 338.681 27.638 344.879 20.7109C351.077 13.7839 358.414 8.63411 366.891 5.26172C375.367 1.88932 384.71 0.203125 394.918 0.203125C403.121 0.203125 410.732 1.29688 417.75 3.48438C424.859 5.58073 431.285 8.86198 437.027 13.3281C442.77 17.7031 447.646 23.2174 451.656 29.8711C455.758 36.5247 458.902 44.4089 461.09 53.5234C463.277 62.5469 464.371 72.8008 464.371 84.2852ZM418.297 126.258V78.4062C418.297 72.026 417.932 66.4661 417.203 61.7266C416.565 56.987 415.562 52.9766 414.195 49.6953C412.919 46.4141 411.324 43.7708 409.41 41.7656C407.496 39.6693 405.309 38.1654 402.848 37.2539C400.478 36.2513 397.835 35.75 394.918 35.75C391.272 35.75 387.991 36.5247 385.074 38.0742C382.249 39.5326 379.833 41.9023 377.828 45.1836C375.823 48.4648 374.273 52.8398 373.18 58.3086C372.177 63.7773 371.676 70.4766 371.676 78.4062V126.258C371.676 132.729 371.995 138.38 372.633 143.211C373.362 147.951 374.365 152.007 375.641 155.379C377.008 158.66 378.648 161.349 380.562 163.445C382.477 165.451 384.664 166.909 387.125 167.82C389.586 168.732 392.275 169.188 395.191 169.188C398.746 169.188 401.936 168.458 404.762 167C407.587 165.542 410.003 163.172 412.008 159.891C414.104 156.518 415.654 152.098 416.656 146.629C417.75 141.069 418.297 134.279 418.297 126.258Z" fill="#175998"/>
</g>
<g filter="url(#filter1_i_1_6)">
<path d="M301.949 84.2852V120.652C301.949 134.962 300.263 147.404 296.891 157.977C293.609 168.549 288.87 177.299 282.672 184.227C276.565 191.154 269.273 196.303 260.797 199.676C252.32 203.048 242.978 204.734 232.77 204.734C224.566 204.734 216.91 203.686 209.801 201.59C202.691 199.402 196.266 196.121 190.523 191.746C184.872 187.28 179.996 181.72 175.895 175.066C171.793 168.413 168.648 160.574 166.461 151.551C164.273 142.436 163.18 132.137 163.18 120.652V84.2852C163.18 69.8841 164.82 57.4427 168.102 46.9609C171.474 36.388 176.259 27.638 182.457 20.7109C188.655 13.7839 195.992 8.63411 204.469 5.26172C212.945 1.88932 222.288 0.203125 232.496 0.203125C240.699 0.203125 248.31 1.29688 255.328 3.48438C262.438 5.58073 268.863 8.86198 274.605 13.3281C280.348 17.7031 285.224 23.2174 289.234 29.8711C293.336 36.5247 296.48 44.4089 298.668 53.5234C300.855 62.5469 301.949 72.8008 301.949 84.2852ZM255.875 126.258V78.4062C255.875 72.026 255.51 66.4661 254.781 61.7266C254.143 56.987 253.141 52.9766 251.773 49.6953C250.497 46.4141 248.902 43.7708 246.988 41.7656C245.074 39.6693 242.887 38.1654 240.426 37.2539C238.056 36.2513 235.413 35.75 232.496 35.75C228.85 35.75 225.569 36.5247 222.652 38.0742C219.827 39.5326 217.411 41.9023 215.406 45.1836C213.401 48.4648 211.852 52.8398 210.758 58.3086C209.755 63.7773 209.254 70.4766 209.254 78.4062V126.258C209.254 132.729 209.573 138.38 210.211 143.211C210.94 147.951 211.943 152.007 213.219 155.379C214.586 158.66 216.227 161.349 218.141 163.445C220.055 165.451 222.242 166.909 224.703 167.82C227.164 168.732 229.853 169.188 232.77 169.188C236.324 169.188 239.514 168.458 242.34 167C245.165 165.542 247.581 163.172 249.586 159.891C251.682 156.518 253.232 152.098 254.234 146.629C255.328 141.069 255.875 134.279 255.875 126.258Z" fill="#175998"/>
</g>
<g filter="url(#filter2_i_1_6)">
<path d="M40.6797 113.27L4.03906 104.656L16.0703 2.9375H132.418V38.7578H53.668L49.1562 78.2695C51.3437 76.9935 55.0352 75.4896 60.2305 73.7578C65.5169 71.9349 71.3503 71.0234 77.7305 71.0234C87.5742 71.0234 96.2786 72.5273 103.844 75.5352C111.5 78.4518 117.971 82.7812 123.258 88.5234C128.544 94.1745 132.509 101.147 135.152 109.441C137.887 117.736 139.254 127.215 139.254 137.879C139.254 146.447 137.841 154.741 135.016 162.762C132.281 170.691 128.043 177.846 122.301 184.227C116.65 190.516 109.495 195.529 100.836 199.266C92.1771 202.911 81.9232 204.734 70.0742 204.734C61.2331 204.734 52.6198 203.367 44.2344 200.633C35.849 197.898 28.2839 193.979 21.5391 188.875C14.8854 183.68 9.59896 177.436 5.67969 170.145C1.85156 162.762 -0.0169271 154.513 0.0742187 145.398H46.4219C46.6953 150.229 47.8346 154.422 49.8398 157.977C51.8451 161.531 54.5339 164.311 57.9062 166.316C61.3698 168.23 65.3346 169.188 69.8008 169.188C74.3581 169.188 78.1406 168.276 81.1484 166.453C84.1563 164.63 86.526 162.124 88.2578 158.934C89.9896 155.743 91.2201 152.098 91.9492 147.996C92.6784 143.803 93.043 139.383 93.043 134.734C93.043 129.812 92.4961 125.392 91.4023 121.473C90.3997 117.553 88.7591 114.227 86.4805 111.492C84.2018 108.667 81.2396 106.525 77.5938 105.066C74.0391 103.608 69.7552 102.879 64.7422 102.879C58.0885 102.879 52.8477 104.018 49.0195 106.297C45.1914 108.576 42.4115 110.9 40.6797 113.27Z" fill="#175998"/>
</g>
<defs>
<filter id="filter0_i_1_6" x="325.602" y="0.203125" width="138.77" height="204.531" filterUnits="userSpaceOnUse" color-interpolation-filters="sRGB">
<feFlood flood-opacity="0" result="BackgroundImageFix"/>
<feBlend mode="normal" in="SourceGraphic" in2="BackgroundImageFix" result="shape"/>
<feColorMatrix in="SourceAlpha" type="matrix" values="0 0 0 0 0 0 0 0 0 0 0 0 0 0 0 0 0 0 127 0" result="hardAlpha"/>
<feOffset/>
<feGaussianBlur stdDeviation="38"/>
<feComposite in2="hardAlpha" operator="arithmetic" k2="-1" k3="1"/>
<feColorMatrix type="matrix" values="0 0 0 0 0.0325694 0 0 0 0 0.154179 0 0 0 0 0.279167 0 0 0 1 0"/>
<feBlend mode="normal" in2="shape" result="effect1_innerShadow_1_6"/>
</filter>
<filter id="filter1_i_1_6" x="163.18" y="0.203125" width="138.77" height="204.531" filterUnits="userSpaceOnUse" color-interpolation-filters="sRGB">
<feFlood flood-opacity="0" result="BackgroundImageFix"/>
<feBlend mode="normal" in="SourceGraphic" in2="BackgroundImageFix" result="shape"/>
<feColorMatrix in="SourceAlpha" type="matrix" values="0 0 0 0 0 0 0 0 0 0 0 0 0 0 0 0 0 0 127 0" result="hardAlpha"/>
<feOffset/>
<feGaussianBlur stdDeviation="38"/>
<feComposite in2="hardAlpha" operator="arithmetic" k2="-1" k3="1"/>
<feColorMatrix type="matrix" values="0 0 0 0 0.0325694 0 0 0 0 0.154179 0 0 0 0 0.279167 0 0 0 1 0"/>
<feBlend mode="normal" in2="shape" result="effect1_innerShadow_1_6"/>
</filter>
<filter id="filter2_i_1_6" x="0.0710392" y="2.9375" width="139.183" height="201.797" filterUnits="userSpaceOnUse" color-interpolation-filters="sRGB">
<feFlood flood-opacity="0" result="BackgroundImageFix"/>
<feBlend mode="normal" in="SourceGraphic" in2="BackgroundImageFix" result="shape"/>
<feColorMatrix in="SourceAlpha" type="matrix" values="0 0 0 0 0 0 0 0 0 0 0 0 0 0 0 0 0 0 127 0" result="hardAlpha"/>
<feOffset/>
<feGaussianBlur stdDeviation="38"/>
<feComposite in2="hardAlpha" operator="arithmetic" k2="-1" k3="1"/>
<feColorMatrix type="matrix" values="0 0 0 0 0.0325694 0 0 0 0 0.154179 0 0 0 0 0.279167 0 0 0 1 0"/>
<feBlend mode="normal" in2="shape" result="effect1_innerShadow_1_6"/>
</filter>
</defs>
</svg>
