<svg xmlns="http://www.w3.org/2000/svg" width="385" height="67" fill="none"><path fill="#000" d="M219.191 34.5V.9h5.136l14.688 24.528h-2.688L250.775.9h5.136l.048 33.6h-5.904l-.048-24.336h1.248L238.967 30.66h-2.784l-12.48-20.496h1.44V34.5h-5.952ZM195.764 34.98c-4.608 0-8.224-1.296-10.848-3.888-2.592-2.592-3.888-6.336-3.888-11.232V.9h6.24v18.72c0 3.456.736 5.968 2.208 7.536 1.504 1.568 3.616 2.352 6.336 2.352s4.816-.784 6.288-2.352c1.472-1.568 2.208-4.08 2.208-7.536V.9h6.144v18.96c0 4.896-1.312 8.64-3.936 11.232-2.592 2.592-6.176 3.888-10.752 3.888ZM142.457 34.5V.9h5.136l21.072 25.872h-2.544V.9h6.192v33.6h-5.136L146.105 8.628h2.544V34.5h-6.192ZM127.128 34.5V.9h6.24v33.6h-6.24ZM105.069 34.5V6.18H93.933V.9h28.512v5.28h-11.136V34.5h-6.24ZM59.236 34.5 74.356.9H80.5l15.168 33.6H89.14L76.132 4.212h2.496L65.668 34.5h-6.432Zm6.96-7.776 1.68-4.896H86.02l1.68 4.896H66.196ZM35.207 34.5V.9h6.24v28.32h17.568v5.28H35.207ZM.847 34.5V.9h13.824c2.976 0 5.52.48 7.632 1.44 2.144.96 3.792 2.336 4.944 4.128 1.152 1.792 1.728 3.92 1.728 6.384 0 2.464-.576 4.592-1.728 6.384-1.152 1.792-2.8 3.168-4.944 4.128-2.112.96-4.656 1.44-7.632 1.44H4.303l2.784-2.928V34.5H.847Zm6.24-11.952-2.784-3.024h10.08c2.752 0 4.816-.576 6.192-1.728 1.408-1.184 2.112-2.832 2.112-4.944 0-2.144-.704-3.792-2.112-4.944-1.376-1.152-3.44-1.728-6.192-1.728H4.303l2.784-3.072v19.44ZM379.803 63.5l-3.728-8.4h1.184l3.424 7.792h-.56l3.472-7.792h1.12l-3.744 8.4h-1.168ZM371.27 63.58c-.811 0-1.542-.181-2.192-.544a4.152 4.152 0 0 1-1.52-1.52c-.374-.65-.56-1.392-.56-2.224 0-.843.186-1.584.56-2.224.373-.64.88-1.141 1.52-1.504s1.37-.544 2.192-.544c.832 0 1.568.181 2.208.544.65.363 1.157.864 1.52 1.504.373.64.56 1.381.56 2.224 0 .832-.187 1.573-.56 2.224a4.007 4.007 0 0 1-1.52 1.52c-.651.363-1.387.544-2.208.544Zm0-1.008c.608 0 1.146-.133 1.616-.4a2.946 2.946 0 0 0 1.104-1.152c.277-.501.416-1.077.416-1.728 0-.661-.139-1.237-.416-1.728a2.835 2.835 0 0 0-1.104-1.136 3.088 3.088 0 0 0-1.6-.416c-.598 0-1.131.139-1.6.416-.47.267-.843.645-1.12 1.136-.278.49-.416 1.067-.416 1.728 0 .65.138 1.227.416 1.728.277.49.65.875 1.12 1.152.469.267.997.4 1.584.4ZM361.338 63.58c-.736 0-1.397-.165-1.984-.496a3.634 3.634 0 0 1-1.392-1.472c-.341-.64-.512-1.413-.512-2.32 0-.917.171-1.69.512-2.32.352-.64.821-1.125 1.408-1.456a3.94 3.94 0 0 1 1.968-.496c.8 0 1.515.181 2.144.544a3.81 3.81 0 0 1 1.504 1.488c.363.64.544 1.387.544 2.24 0 .843-.181 1.59-.544 2.24a3.921 3.921 0 0 1-1.504 1.504c-.629.363-1.344.544-2.144.544Zm-4.336-.08V51.628h1.136v5.952l-.16 1.696.112 1.696V63.5h-1.088Zm4.256-.928c.597 0 1.131-.133 1.6-.4a3.058 3.058 0 0 0 1.12-1.152c.277-.501.416-1.077.416-1.728 0-.661-.139-1.237-.416-1.728a2.94 2.94 0 0 0-1.12-1.136 3.085 3.085 0 0 0-1.6-.416c-.597 0-1.136.139-1.616.416a2.94 2.94 0 0 0-1.12 1.136c-.267.49-.4 1.067-.4 1.728 0 .65.133 1.227.4 1.728.277.49.651.875 1.12 1.152.48.267 1.019.4 1.616.4ZM349.724 63.58c-.715 0-1.339-.133-1.872-.4a2.886 2.886 0 0 1-1.248-1.2c-.288-.533-.432-1.2-.432-2V55.1h1.136v4.752c0 .896.219 1.573.656 2.032.448.448 1.072.672 1.872.672.587 0 1.093-.117 1.52-.352.437-.245.768-.597.992-1.056.235-.459.352-1.008.352-1.648v-4.4h1.136v8.4h-1.088v-2.304l.176.416a3.14 3.14 0 0 1-1.248 1.456c-.555.341-1.205.512-1.952.512ZM341.955 63.5v-8.4h1.136v8.4h-1.136Zm.576-10.256a.804.804 0 0 1-.592-.24.786.786 0 0 1-.24-.576c0-.224.08-.41.24-.56.16-.16.357-.24.592-.24s.432.075.592.224c.16.15.24.336.24.56 0 .235-.08.432-.24.592a.772.772 0 0 1-.592.24ZM332.773 63.5V52.3h1.184v10.176h6.272V63.5h-7.456ZM324.172 63.5v-1.856l-.048-.304v-3.104c0-.715-.203-1.264-.608-1.648-.395-.384-.987-.576-1.776-.576-.544 0-1.061.09-1.552.272a3.945 3.945 0 0 0-1.248.72l-.512-.848c.427-.363.939-.64 1.536-.832a5.835 5.835 0 0 1 1.888-.304c1.088 0 1.925.272 2.512.816.597.533.896 1.35.896 2.448V63.5h-1.088Zm-2.896.08c-.629 0-1.179-.101-1.648-.304-.459-.213-.811-.501-1.056-.864a2.28 2.28 0 0 1-.368-1.28c0-.437.101-.832.304-1.184.213-.363.555-.65 1.024-.864.48-.224 1.12-.336 1.92-.336h2.896v.848h-2.864c-.811 0-1.376.144-1.696.432a1.406 1.406 0 0 0-.464 1.072c0 .48.187.864.56 1.152.373.288.896.432 1.568.432.64 0 1.189-.144 1.648-.432a2.556 2.556 0 0 0 1.024-1.28l.256.784a2.658 2.658 0 0 1-1.12 1.328c-.523.33-1.184.496-1.984.496ZM310.55 66.684c-.394 0-.773-.064-1.136-.192a2.462 2.462 0 0 1-.912-.576l.528-.848c.214.203.443.357.688.464.256.117.539.176.848.176.374 0 .694-.107.96-.32.278-.203.539-.565.784-1.088l.544-1.232.128-.176 3.456-7.792h1.12l-4.208 9.408c-.234.544-.496.976-.784 1.296-.277.32-.581.544-.912.672-.33.139-.698.208-1.104.208Zm2.24-2.944-3.872-8.64h1.184l3.424 7.712-.736.928ZM306.469 63.5v-1.856l-.048-.304v-3.104c0-.715-.203-1.264-.608-1.648-.395-.384-.987-.576-1.776-.576-.544 0-1.061.09-1.552.272a3.945 3.945 0 0 0-1.248.72l-.512-.848c.427-.363.939-.64 1.536-.832a5.835 5.835 0 0 1 1.888-.304c1.088 0 1.925.272 2.512.816.597.533.896 1.35.896 2.448V63.5h-1.088Zm-2.896.08c-.629 0-1.179-.101-1.648-.304-.459-.213-.811-.501-1.056-.864a2.28 2.28 0 0 1-.368-1.28c0-.437.101-.832.304-1.184.213-.363.555-.65 1.024-.864.48-.224 1.12-.336 1.92-.336h2.896v.848h-2.864c-.811 0-1.376.144-1.696.432a1.406 1.406 0 0 0-.464 1.072c0 .48.187.864.56 1.152.373.288.896.432 1.568.432.64 0 1.189-.144 1.648-.432a2.556 2.556 0 0 0 1.024-1.28l.256.784a2.658 2.658 0 0 1-1.12 1.328c-.523.33-1.184.496-1.984.496ZM292.648 61.324l.032-1.456 5.232-4.768h1.392l-3.696 3.536-.64.544-2.32 2.144Zm-.896 2.176V51.628h1.136V63.5h-1.136Zm6.512 0-3.504-4.368.736-.88 4.16 5.248h-1.392ZM286.195 63.58a6.606 6.606 0 0 1-1.968-.288c-.618-.203-1.104-.453-1.456-.752l.512-.896c.342.256.779.48 1.312.672a5.19 5.19 0 0 0 1.68.272c.8 0 1.376-.123 1.728-.368.352-.256.528-.592.528-1.008 0-.31-.101-.55-.304-.72-.192-.181-.448-.315-.768-.4a8.44 8.44 0 0 0-1.072-.24 23.338 23.338 0 0 1-1.184-.224 4.565 4.565 0 0 1-1.056-.368c-.32-.17-.581-.4-.784-.688-.192-.288-.288-.672-.288-1.152 0-.459.128-.87.384-1.232.256-.363.63-.645 1.12-.848.502-.213 1.11-.32 1.824-.32.544 0 1.088.075 1.632.224.544.139.992.325 1.344.56l-.496.912a3.685 3.685 0 0 0-1.2-.544 4.804 4.804 0 0 0-1.28-.176c-.757 0-1.317.133-1.68.4-.352.256-.528.587-.528.992 0 .32.096.57.288.752.203.181.464.325.784.432.331.096.688.176 1.072.24.395.064.784.144 1.168.24a4.52 4.52 0 0 1 1.072.368c.331.15.592.368.784.656.203.277.304.645.304 1.104 0 .49-.138.917-.416 1.28-.266.352-.661.63-1.184.832-.512.192-1.136.288-1.872.288ZM277.521 63.5l-3.728-8.4h1.184l3.424 7.792h-.56l3.472-7.792h1.12l-3.744 8.4h-1.168ZM268.988 63.58c-.81 0-1.541-.181-2.192-.544a4.16 4.16 0 0 1-1.52-1.52c-.373-.65-.56-1.392-.56-2.224 0-.843.187-1.584.56-2.224.374-.64.88-1.141 1.52-1.504s1.371-.544 2.192-.544c.832 0 1.568.181 2.208.544a3.882 3.882 0 0 1 1.52 1.504c.374.64.56 1.381.56 2.224 0 .832-.186 1.573-.56 2.224a3.993 3.993 0 0 1-1.52 1.52c-.65.363-1.386.544-2.208.544Zm0-1.008c.608 0 1.147-.133 1.616-.4.47-.277.838-.661 1.104-1.152.278-.501.416-1.077.416-1.728 0-.661-.138-1.237-.416-1.728a2.822 2.822 0 0 0-1.104-1.136 3.083 3.083 0 0 0-1.6-.416c-.597 0-1.13.139-1.6.416a2.947 2.947 0 0 0-1.12 1.136c-.277.49-.416 1.067-.416 1.728 0 .65.139 1.227.416 1.728.278.49.651.875 1.12 1.152.47.267.998.4 1.584.4ZM259.04 55.02c.683 0 1.28.133 1.792.4.523.256.928.65 1.216 1.184.299.533.448 1.205.448 2.016v4.88h-1.136v-4.768c0-.885-.224-1.552-.672-2-.437-.459-1.056-.688-1.856-.688-.597 0-1.12.123-1.568.368a2.47 2.47 0 0 0-1.024 1.04c-.235.448-.352.992-.352 1.632V63.5h-1.136v-8.4h1.088v2.304l-.176-.432a3.014 3.014 0 0 1 1.28-1.424c.587-.352 1.285-.528 2.096-.528ZM250.455 63.5v-8.4h1.136v8.4h-1.136Zm.576-10.256a.804.804 0 0 1-.592-.24.786.786 0 0 1-.24-.576c0-.224.08-.41.24-.56.16-.16.357-.24.592-.24s.432.075.592.224c.16.15.24.336.24.56 0 .235-.08.432-.24.592a.772.772 0 0 1-.592.24ZM246.611 63.58c-.789 0-1.397-.213-1.824-.64-.427-.427-.64-1.03-.64-1.808v-7.888h1.136v7.824c0 .49.123.87.368 1.136.256.267.619.4 1.088.4.501 0 .917-.144 1.248-.432l.4.816a2.092 2.092 0 0 1-.816.448 3.217 3.217 0 0 1-.96.144Zm-3.968-7.536V55.1h5.2v.944h-5.2ZM237.299 63.5v-8.4h1.088v2.288l-.112-.4c.234-.64.629-1.125 1.184-1.456.554-.341 1.242-.512 2.064-.512v1.104h-.128a.53.53 0 0 0-.128-.016c-.886 0-1.579.272-2.08.816-.502.533-.752 1.296-.752 2.288V63.5h-1.136ZM231.211 63.58c-.875 0-1.643-.181-2.304-.544a4.079 4.079 0 0 1-1.552-1.52c-.374-.65-.56-1.392-.56-2.224 0-.832.176-1.568.528-2.208a3.98 3.98 0 0 1 1.472-1.504 4.06 4.06 0 0 1 2.112-.56c.789 0 1.488.181 2.096.544a3.736 3.736 0 0 1 1.456 1.504c.352.64.528 1.381.528 2.224 0 .053-.006.112-.016.176v.176h-7.312v-.848h6.704l-.448.336c0-.608-.134-1.147-.4-1.616a2.815 2.815 0 0 0-1.056-1.12c-.448-.267-.966-.4-1.552-.4-.576 0-1.094.133-1.552.4-.459.267-.816.64-1.072 1.12-.256.48-.384 1.03-.384 1.648v.176c0 .64.138 1.205.416 1.696.288.48.682.859 1.184 1.136.512.267 1.093.4 1.744.4.512 0 .986-.09 1.424-.272a2.962 2.962 0 0 0 1.152-.832l.64.736a3.6 3.6 0 0 1-1.408 1.024 4.677 4.677 0 0 1-1.84.352ZM221.365 63.5l-3.728-8.4h1.184l3.424 7.792h-.56l3.472-7.792h1.12l-3.744 8.4h-1.168ZM215.517 63.58c-.789 0-1.397-.213-1.824-.64-.426-.427-.64-1.03-.64-1.808v-7.888h1.136v7.824c0 .49.123.87.368 1.136.256.267.619.4 1.088.4.502 0 .918-.144 1.248-.432l.4.816a2.092 2.092 0 0 1-.816.448 3.217 3.217 0 0 1-.96.144Zm-3.968-7.536V55.1h5.2v.944h-5.2ZM206.773 63.58c-.875 0-1.643-.181-2.304-.544a4.086 4.086 0 0 1-1.552-1.52c-.373-.65-.56-1.392-.56-2.224 0-.832.176-1.568.528-2.208a3.987 3.987 0 0 1 1.472-1.504 4.06 4.06 0 0 1 2.112-.56c.789 0 1.488.181 2.096.544a3.73 3.73 0 0 1 1.456 1.504c.352.64.528 1.381.528 2.224 0 .053-.005.112-.016.176v.176h-7.312v-.848h6.704l-.448.336c0-.608-.133-1.147-.4-1.616a2.815 2.815 0 0 0-1.056-1.12c-.448-.267-.965-.4-1.552-.4-.576 0-1.093.133-1.552.4-.459.267-.816.64-1.072 1.12-.256.48-.384 1.03-.384 1.648v.176c0 .64.139 1.205.416 1.696.288.48.683.859 1.184 1.136.512.267 1.093.4 1.744.4.512 0 .987-.09 1.424-.272a2.962 2.962 0 0 0 1.152-.832l.64.736c-.373.448-.843.79-1.408 1.024a4.677 4.677 0 0 1-1.84.352ZM196.681 55.02c.682 0 1.28.133 1.792.4.522.256.928.65 1.216 1.184.298.533.448 1.205.448 2.016v4.88h-1.136v-4.768c0-.885-.224-1.552-.672-2-.438-.459-1.056-.688-1.856-.688-.598 0-1.12.123-1.568.368a2.464 2.464 0 0 0-1.024 1.04c-.235.448-.352.992-.352 1.632V63.5h-1.136V51.628h1.136v5.776l-.224-.432a3.009 3.009 0 0 1 1.28-1.424c.586-.352 1.285-.528 2.096-.528ZM185.997 63.596a6.4 6.4 0 0 1-2.336-.416 5.613 5.613 0 0 1-1.856-1.2 5.593 5.593 0 0 1-1.232-1.808 5.865 5.865 0 0 1-.432-2.272c0-.821.144-1.579.432-2.272a5.593 5.593 0 0 1 1.232-1.808 5.587 5.587 0 0 1 1.872-1.184 6.189 6.189 0 0 1 2.336-.432c.81 0 1.573.139 2.288.416a4.53 4.53 0 0 1 1.808 1.216l-.752.752a4.085 4.085 0 0 0-1.52-1.008 4.951 4.951 0 0 0-1.792-.32c-.672 0-1.296.117-1.872.352a4.304 4.304 0 0 0-1.504.976 4.568 4.568 0 0 0-1.008 1.472 4.67 4.67 0 0 0-.352 1.84c0 .672.117 1.29.352 1.856a4.81 4.81 0 0 0 1.008 1.472c.426.416.928.741 1.504.976a5.12 5.12 0 0 0 1.872.336c.64 0 1.237-.107 1.792-.32a4.266 4.266 0 0 0 1.52-1.024l.752.752a4.676 4.676 0 0 1-1.808 1.232 6.316 6.316 0 0 1-2.304.416ZM168.097 66.684c-.394 0-.773-.064-1.136-.192a2.462 2.462 0 0 1-.912-.576l.528-.848c.214.203.443.357.688.464.256.117.539.176.848.176.374 0 .694-.107.96-.32.278-.203.539-.565.784-1.088l.544-1.232.128-.176 3.456-7.792h1.12l-4.208 9.408c-.234.544-.496.976-.784 1.296-.277.32-.581.544-.912.672-.33.139-.698.208-1.104.208Zm2.24-2.944-3.872-8.64h1.184l3.424 7.712-.736.928ZM161.76 63.58c-.736 0-1.398-.165-1.984-.496a3.634 3.634 0 0 1-1.392-1.472c-.342-.64-.512-1.413-.512-2.32 0-.917.17-1.69.512-2.32.352-.64.821-1.125 1.408-1.456a3.934 3.934 0 0 1 1.968-.496c.8 0 1.514.181 2.144.544a3.81 3.81 0 0 1 1.504 1.488c.362.64.544 1.387.544 2.24 0 .843-.182 1.59-.544 2.24a3.921 3.921 0 0 1-1.504 1.504c-.63.363-1.344.544-2.144.544Zm-4.336-.08V51.628h1.136v5.952l-.16 1.696.112 1.696V63.5h-1.088Zm4.256-.928c.597 0 1.13-.133 1.6-.4a3.065 3.065 0 0 0 1.12-1.152c.277-.501.416-1.077.416-1.728 0-.661-.139-1.237-.416-1.728a2.947 2.947 0 0 0-1.12-1.136 3.088 3.088 0 0 0-1.6-.416 3.17 3.17 0 0 0-1.616.416c-.47.267-.843.645-1.12 1.136-.267.49-.4 1.067-.4 1.728 0 .65.133 1.227.4 1.728.277.49.65.875 1.12 1.152.48.267 1.018.4 1.616.4Z"/></svg>