<svg width="385" height="67" viewBox="0 0 385 67" fill="none" xmlns="http://www.w3.org/2000/svg">
<path d="M219.191 34.5V0.899994H224.327L239.015 25.428H236.327L250.775 0.899994H255.911L255.959 34.5H250.055L250.007 10.164H251.255L238.967 30.66H236.183L223.703 10.164H225.143V34.5H219.191Z" fill="black"/>
<path d="M195.764 34.98C191.156 34.98 187.54 33.684 184.916 31.092C182.324 28.5 181.028 24.756 181.028 19.86V0.899994H187.268V19.62C187.268 23.076 188.004 25.588 189.476 27.156C190.98 28.724 193.092 29.508 195.812 29.508C198.532 29.508 200.628 28.724 202.1 27.156C203.572 25.588 204.308 23.076 204.308 19.62V0.899994H210.452V19.86C210.452 24.756 209.14 28.5 206.516 31.092C203.924 33.684 200.34 34.98 195.764 34.98Z" fill="black"/>
<path d="M142.457 34.5V0.899994H147.593L168.665 26.772H166.121V0.899994H172.313V34.5H167.177L146.105 8.62799H148.649V34.5H142.457Z" fill="black"/>
<path d="M127.128 34.5V0.899994H133.368V34.5H127.128Z" fill="black"/>
<path d="M105.069 34.5V6.17999H93.9334V0.899994H122.445V6.17999H111.309V34.5H105.069Z" fill="black"/>
<path d="M59.2358 34.5L74.3558 0.899994H80.4998L95.6678 34.5H89.1398L76.1318 4.21199H78.6278L65.6678 34.5H59.2358ZM66.1958 26.724L67.8758 21.828H86.0198L87.6998 26.724H66.1958Z" fill="black"/>
<path d="M35.2066 34.5V0.899994H41.4466V29.22H59.0146V34.5H35.2066Z" fill="black"/>
<path d="M0.847191 34.5V0.899994H14.6712C17.6472 0.899994 20.1912 1.37999 22.3032 2.34C24.4472 3.29999 26.0952 4.67599 27.2472 6.46799C28.3992 8.26 28.9752 10.388 28.9752 12.852C28.9752 15.316 28.3992 17.444 27.2472 19.236C26.0952 21.028 24.4472 22.404 22.3032 23.364C20.1912 24.324 17.6472 24.804 14.6712 24.804H4.30319L7.08719 21.876V34.5H0.847191ZM7.08719 22.548L4.30319 19.524H14.3832C17.1352 19.524 19.1992 18.948 20.5752 17.796C21.9832 16.612 22.6872 14.964 22.6872 12.852C22.6872 10.708 21.9832 9.06 20.5752 7.908C19.1992 6.75599 17.1352 6.17999 14.3832 6.17999H4.30319L7.08719 3.10799V22.548Z" fill="black"/>
<path d="M379.803 63.5L376.075 55.1H377.259L380.683 62.892H380.123L383.595 55.1H384.715L380.971 63.5H379.803Z" fill="black"/>
<path d="M371.27 63.58C370.459 63.58 369.728 63.3987 369.078 63.036C368.438 62.6627 367.931 62.156 367.558 61.516C367.184 60.8653 366.998 60.124 366.998 59.292C366.998 58.4493 367.184 57.708 367.558 57.068C367.931 56.428 368.438 55.9267 369.078 55.564C369.718 55.2013 370.448 55.02 371.27 55.02C372.102 55.02 372.838 55.2013 373.478 55.564C374.128 55.9267 374.635 56.428 374.998 57.068C375.371 57.708 375.558 58.4493 375.558 59.292C375.558 60.124 375.371 60.8653 374.998 61.516C374.635 62.156 374.128 62.6627 373.478 63.036C372.827 63.3987 372.091 63.58 371.27 63.58ZM371.27 62.572C371.878 62.572 372.416 62.4387 372.886 62.172C373.355 61.8947 373.723 61.5107 373.99 61.02C374.267 60.5187 374.406 59.9427 374.406 59.292C374.406 58.6307 374.267 58.0547 373.99 57.564C373.723 57.0733 373.355 56.6947 372.886 56.428C372.416 56.1507 371.883 56.012 371.286 56.012C370.688 56.012 370.155 56.1507 369.686 56.428C369.216 56.6947 368.843 57.0733 368.566 57.564C368.288 58.0547 368.15 58.6307 368.15 59.292C368.15 59.9427 368.288 60.5187 368.566 61.02C368.843 61.5107 369.216 61.8947 369.686 62.172C370.155 62.4387 370.683 62.572 371.27 62.572Z" fill="black"/>
<path d="M361.338 63.58C360.602 63.58 359.941 63.4147 359.354 63.084C358.767 62.7427 358.303 62.252 357.962 61.612C357.621 60.972 357.45 60.1987 357.45 59.292C357.45 58.3747 357.621 57.6013 357.962 56.972C358.314 56.332 358.783 55.8467 359.37 55.516C359.957 55.1853 360.613 55.02 361.338 55.02C362.138 55.02 362.853 55.2013 363.482 55.564C364.122 55.916 364.623 56.412 364.986 57.052C365.349 57.692 365.53 58.4387 365.53 59.292C365.53 60.1347 365.349 60.8813 364.986 61.532C364.623 62.172 364.122 62.6733 363.482 63.036C362.853 63.3987 362.138 63.58 361.338 63.58ZM357.002 63.5V51.628H358.138V57.58L357.978 59.276L358.09 60.972V63.5H357.002ZM361.258 62.572C361.855 62.572 362.389 62.4387 362.858 62.172C363.327 61.8947 363.701 61.5107 363.978 61.02C364.255 60.5187 364.394 59.9427 364.394 59.292C364.394 58.6307 364.255 58.0547 363.978 57.564C363.701 57.0733 363.327 56.6947 362.858 56.428C362.389 56.1507 361.855 56.012 361.258 56.012C360.661 56.012 360.122 56.1507 359.642 56.428C359.173 56.6947 358.799 57.0733 358.522 57.564C358.255 58.0547 358.122 58.6307 358.122 59.292C358.122 59.9427 358.255 60.5187 358.522 61.02C358.799 61.5107 359.173 61.8947 359.642 62.172C360.122 62.4387 360.661 62.572 361.258 62.572Z" fill="black"/>
<path d="M349.724 63.58C349.009 63.58 348.385 63.4467 347.852 63.18C347.319 62.9133 346.903 62.5133 346.604 61.98C346.316 61.4467 346.172 60.78 346.172 59.98V55.1H347.308V59.852C347.308 60.748 347.527 61.4253 347.964 61.884C348.412 62.332 349.036 62.556 349.836 62.556C350.423 62.556 350.929 62.4387 351.356 62.204C351.793 61.9587 352.124 61.6067 352.348 61.148C352.583 60.6893 352.7 60.14 352.7 59.5V55.1H353.836V63.5H352.748V61.196L352.924 61.612C352.657 62.2307 352.241 62.716 351.676 63.068C351.121 63.4093 350.471 63.58 349.724 63.58Z" fill="black"/>
<path d="M341.955 63.5V55.1H343.091V63.5H341.955ZM342.531 53.244C342.296 53.244 342.099 53.164 341.939 53.004C341.779 52.844 341.699 52.652 341.699 52.428C341.699 52.204 341.779 52.0173 341.939 51.868C342.099 51.708 342.296 51.628 342.531 51.628C342.766 51.628 342.963 51.7027 343.123 51.852C343.283 52.0013 343.363 52.188 343.363 52.412C343.363 52.6467 343.283 52.844 343.123 53.004C342.974 53.164 342.776 53.244 342.531 53.244Z" fill="black"/>
<path d="M332.773 63.5V52.3H333.957V62.476H340.229V63.5H332.773Z" fill="black"/>
<path d="M324.172 63.5V61.644L324.124 61.34V58.236C324.124 57.5213 323.921 56.972 323.516 56.588C323.121 56.204 322.529 56.012 321.74 56.012C321.196 56.012 320.679 56.1027 320.188 56.284C319.697 56.4653 319.281 56.7053 318.94 57.004L318.428 56.156C318.855 55.7933 319.367 55.516 319.964 55.324C320.561 55.1213 321.191 55.02 321.852 55.02C322.94 55.02 323.777 55.292 324.364 55.836C324.961 56.3693 325.26 57.1853 325.26 58.284V63.5H324.172ZM321.276 63.58C320.647 63.58 320.097 63.4787 319.628 63.276C319.169 63.0627 318.817 62.7747 318.572 62.412C318.327 62.0387 318.204 61.612 318.204 61.132C318.204 60.6947 318.305 60.3 318.508 59.948C318.721 59.5853 319.063 59.2973 319.532 59.084C320.012 58.86 320.652 58.748 321.452 58.748H324.348V59.596H321.484C320.673 59.596 320.108 59.74 319.788 60.028C319.479 60.316 319.324 60.6733 319.324 61.1C319.324 61.58 319.511 61.964 319.884 62.252C320.257 62.54 320.78 62.684 321.452 62.684C322.092 62.684 322.641 62.54 323.1 62.252C323.569 61.9533 323.911 61.5267 324.124 60.972L324.38 61.756C324.167 62.3107 323.793 62.7533 323.26 63.084C322.737 63.4147 322.076 63.58 321.276 63.58Z" fill="black"/>
<path d="M310.55 66.684C310.156 66.684 309.777 66.62 309.414 66.492C309.062 66.364 308.758 66.172 308.502 65.916L309.03 65.068C309.244 65.2707 309.473 65.4253 309.718 65.532C309.974 65.6493 310.257 65.708 310.566 65.708C310.94 65.708 311.26 65.6013 311.526 65.388C311.804 65.1853 312.065 64.8227 312.31 64.3L312.854 63.068L312.982 62.892L316.438 55.1H317.558L313.35 64.508C313.116 65.052 312.854 65.484 312.566 65.804C312.289 66.124 311.985 66.348 311.654 66.476C311.324 66.6147 310.956 66.684 310.55 66.684ZM312.79 63.74L308.918 55.1H310.102L313.526 62.812L312.79 63.74Z" fill="black"/>
<path d="M306.469 63.5V61.644L306.421 61.34V58.236C306.421 57.5213 306.218 56.972 305.813 56.588C305.418 56.204 304.826 56.012 304.037 56.012C303.493 56.012 302.976 56.1027 302.485 56.284C301.994 56.4653 301.578 56.7053 301.237 57.004L300.725 56.156C301.152 55.7933 301.664 55.516 302.261 55.324C302.858 55.1213 303.488 55.02 304.149 55.02C305.237 55.02 306.074 55.292 306.661 55.836C307.258 56.3693 307.557 57.1853 307.557 58.284V63.5H306.469ZM303.573 63.58C302.944 63.58 302.394 63.4787 301.925 63.276C301.466 63.0627 301.114 62.7747 300.869 62.412C300.624 62.0387 300.501 61.612 300.501 61.132C300.501 60.6947 300.602 60.3 300.805 59.948C301.018 59.5853 301.36 59.2973 301.829 59.084C302.309 58.86 302.949 58.748 303.749 58.748H306.645V59.596H303.781C302.97 59.596 302.405 59.74 302.085 60.028C301.776 60.316 301.621 60.6733 301.621 61.1C301.621 61.58 301.808 61.964 302.181 62.252C302.554 62.54 303.077 62.684 303.749 62.684C304.389 62.684 304.938 62.54 305.397 62.252C305.866 61.9533 306.208 61.5267 306.421 60.972L306.677 61.756C306.464 62.3107 306.09 62.7533 305.557 63.084C305.034 63.4147 304.373 63.58 303.573 63.58Z" fill="black"/>
<path d="M292.648 61.324L292.68 59.868L297.912 55.1H299.304L295.608 58.636L294.968 59.18L292.648 61.324ZM291.752 63.5V51.628H292.888V63.5H291.752ZM298.264 63.5L294.76 59.132L295.496 58.252L299.656 63.5H298.264Z" fill="black"/>
<path d="M286.195 63.58C285.502 63.58 284.846 63.484 284.227 63.292C283.609 63.0893 283.123 62.8387 282.771 62.54L283.283 61.644C283.625 61.9 284.062 62.124 284.595 62.316C285.129 62.4973 285.689 62.588 286.275 62.588C287.075 62.588 287.651 62.4653 288.003 62.22C288.355 61.964 288.531 61.628 288.531 61.212C288.531 60.9027 288.43 60.6627 288.227 60.492C288.035 60.3107 287.779 60.1773 287.459 60.092C287.139 59.996 286.782 59.916 286.387 59.852C285.993 59.788 285.598 59.7133 285.203 59.628C284.819 59.5427 284.467 59.42 284.147 59.26C283.827 59.0893 283.566 58.86 283.363 58.572C283.171 58.284 283.075 57.9 283.075 57.42C283.075 56.9613 283.203 56.5507 283.459 56.188C283.715 55.8253 284.089 55.5427 284.579 55.34C285.081 55.1267 285.689 55.02 286.403 55.02C286.947 55.02 287.491 55.0947 288.035 55.244C288.579 55.3827 289.027 55.5693 289.379 55.804L288.883 56.716C288.51 56.46 288.11 56.2787 287.683 56.172C287.257 56.0547 286.83 55.996 286.403 55.996C285.646 55.996 285.086 56.1293 284.723 56.396C284.371 56.652 284.195 56.9827 284.195 57.388C284.195 57.708 284.291 57.9587 284.483 58.14C284.686 58.3213 284.947 58.4653 285.267 58.572C285.598 58.668 285.955 58.748 286.339 58.812C286.734 58.876 287.123 58.956 287.507 59.052C287.902 59.1373 288.259 59.26 288.579 59.42C288.91 59.5693 289.171 59.788 289.363 60.076C289.566 60.3533 289.667 60.7213 289.667 61.18C289.667 61.6707 289.529 62.0973 289.251 62.46C288.985 62.812 288.59 63.0893 288.067 63.292C287.555 63.484 286.931 63.58 286.195 63.58Z" fill="black"/>
<path d="M277.521 63.5L273.793 55.1H274.977L278.401 62.892H277.841L281.313 55.1H282.433L278.689 63.5H277.521Z" fill="black"/>
<path d="M268.988 63.58C268.178 63.58 267.447 63.3987 266.796 63.036C266.156 62.6627 265.65 62.156 265.276 61.516C264.903 60.8653 264.716 60.124 264.716 59.292C264.716 58.4493 264.903 57.708 265.276 57.068C265.65 56.428 266.156 55.9267 266.796 55.564C267.436 55.2013 268.167 55.02 268.988 55.02C269.82 55.02 270.556 55.2013 271.196 55.564C271.847 55.9267 272.354 56.428 272.716 57.068C273.09 57.708 273.276 58.4493 273.276 59.292C273.276 60.124 273.09 60.8653 272.716 61.516C272.354 62.156 271.847 62.6627 271.196 63.036C270.546 63.3987 269.81 63.58 268.988 63.58ZM268.988 62.572C269.596 62.572 270.135 62.4387 270.604 62.172C271.074 61.8947 271.442 61.5107 271.708 61.02C271.986 60.5187 272.124 59.9427 272.124 59.292C272.124 58.6307 271.986 58.0547 271.708 57.564C271.442 57.0733 271.074 56.6947 270.604 56.428C270.135 56.1507 269.602 56.012 269.004 56.012C268.407 56.012 267.874 56.1507 267.404 56.428C266.935 56.6947 266.562 57.0733 266.284 57.564C266.007 58.0547 265.868 58.6307 265.868 59.292C265.868 59.9427 266.007 60.5187 266.284 61.02C266.562 61.5107 266.935 61.8947 267.404 62.172C267.874 62.4387 268.402 62.572 268.988 62.572Z" fill="black"/>
<path d="M259.04 55.02C259.723 55.02 260.32 55.1533 260.832 55.42C261.355 55.676 261.76 56.0707 262.048 56.604C262.347 57.1373 262.496 57.8093 262.496 58.62V63.5H261.36V58.732C261.36 57.8467 261.136 57.18 260.688 56.732C260.251 56.2733 259.632 56.044 258.832 56.044C258.235 56.044 257.712 56.1667 257.264 56.412C256.827 56.6467 256.485 56.9933 256.24 57.452C256.005 57.9 255.888 58.444 255.888 59.084V63.5H254.752V55.1H255.84V57.404L255.664 56.972C255.931 56.364 256.357 55.8893 256.944 55.548C257.531 55.196 258.229 55.02 259.04 55.02Z" fill="black"/>
<path d="M250.455 63.5V55.1H251.591V63.5H250.455ZM251.031 53.244C250.796 53.244 250.599 53.164 250.439 53.004C250.279 52.844 250.199 52.652 250.199 52.428C250.199 52.204 250.279 52.0173 250.439 51.868C250.599 51.708 250.796 51.628 251.031 51.628C251.266 51.628 251.463 51.7027 251.623 51.852C251.783 52.0013 251.863 52.188 251.863 52.412C251.863 52.6467 251.783 52.844 251.623 53.004C251.474 53.164 251.276 53.244 251.031 53.244Z" fill="black"/>
<path d="M246.611 63.58C245.822 63.58 245.214 63.3667 244.787 62.94C244.36 62.5133 244.147 61.9107 244.147 61.132V53.244H245.283V61.068C245.283 61.5587 245.406 61.9373 245.651 62.204C245.907 62.4707 246.27 62.604 246.739 62.604C247.24 62.604 247.656 62.46 247.987 62.172L248.387 62.988C248.163 63.1907 247.891 63.34 247.571 63.436C247.262 63.532 246.942 63.58 246.611 63.58ZM242.643 56.044V55.1H247.843V56.044H242.643Z" fill="black"/>
<path d="M237.299 63.5V55.1H238.387V57.388L238.275 56.988C238.509 56.348 238.904 55.8627 239.459 55.532C240.013 55.1907 240.701 55.02 241.523 55.02V56.124C241.48 56.124 241.437 56.124 241.395 56.124C241.352 56.1133 241.309 56.108 241.267 56.108C240.381 56.108 239.688 56.38 239.187 56.924C238.685 57.4573 238.435 58.22 238.435 59.212V63.5H237.299Z" fill="black"/>
<path d="M231.211 63.58C230.336 63.58 229.568 63.3987 228.907 63.036C228.245 62.6627 227.728 62.156 227.355 61.516C226.981 60.8653 226.795 60.124 226.795 59.292C226.795 58.46 226.971 57.724 227.323 57.084C227.685 56.444 228.176 55.9427 228.795 55.58C229.424 55.2067 230.128 55.02 230.907 55.02C231.696 55.02 232.395 55.2013 233.003 55.564C233.621 55.916 234.107 56.4173 234.459 57.068C234.811 57.708 234.987 58.4493 234.987 59.292C234.987 59.3453 234.981 59.404 234.971 59.468C234.971 59.5213 234.971 59.58 234.971 59.644H227.659V58.796H234.363L233.915 59.132C233.915 58.524 233.781 57.9853 233.515 57.516C233.259 57.036 232.907 56.6627 232.459 56.396C232.011 56.1293 231.493 55.996 230.907 55.996C230.331 55.996 229.813 56.1293 229.355 56.396C228.896 56.6627 228.539 57.036 228.283 57.516C228.027 57.996 227.899 58.5453 227.899 59.164V59.34C227.899 59.98 228.037 60.5453 228.315 61.036C228.603 61.516 228.997 61.8947 229.499 62.172C230.011 62.4387 230.592 62.572 231.243 62.572C231.755 62.572 232.229 62.4813 232.667 62.3C233.115 62.1187 233.499 61.8413 233.819 61.468L234.459 62.204C234.085 62.652 233.616 62.9933 233.051 63.228C232.496 63.4627 231.883 63.58 231.211 63.58Z" fill="black"/>
<path d="M221.365 63.5L217.637 55.1H218.821L222.245 62.892H221.685L225.157 55.1H226.277L222.533 63.5H221.365Z" fill="black"/>
<path d="M215.517 63.58C214.728 63.58 214.12 63.3667 213.693 62.94C213.267 62.5133 213.053 61.9107 213.053 61.132V53.244H214.189V61.068C214.189 61.5587 214.312 61.9373 214.557 62.204C214.813 62.4707 215.176 62.604 215.645 62.604C216.147 62.604 216.563 62.46 216.893 62.172L217.293 62.988C217.069 63.1907 216.797 63.34 216.477 63.436C216.168 63.532 215.848 63.58 215.517 63.58ZM211.549 56.044V55.1H216.749V56.044H211.549Z" fill="black"/>
<path d="M206.773 63.58C205.898 63.58 205.13 63.3987 204.469 63.036C203.808 62.6627 203.29 62.156 202.917 61.516C202.544 60.8653 202.357 60.124 202.357 59.292C202.357 58.46 202.533 57.724 202.885 57.084C203.248 56.444 203.738 55.9427 204.357 55.58C204.986 55.2067 205.69 55.02 206.469 55.02C207.258 55.02 207.957 55.2013 208.565 55.564C209.184 55.916 209.669 56.4173 210.021 57.068C210.373 57.708 210.549 58.4493 210.549 59.292C210.549 59.3453 210.544 59.404 210.533 59.468C210.533 59.5213 210.533 59.58 210.533 59.644H203.221V58.796H209.925L209.477 59.132C209.477 58.524 209.344 57.9853 209.077 57.516C208.821 57.036 208.469 56.6627 208.021 56.396C207.573 56.1293 207.056 55.996 206.469 55.996C205.893 55.996 205.376 56.1293 204.917 56.396C204.458 56.6627 204.101 57.036 203.845 57.516C203.589 57.996 203.461 58.5453 203.461 59.164V59.34C203.461 59.98 203.6 60.5453 203.877 61.036C204.165 61.516 204.56 61.8947 205.061 62.172C205.573 62.4387 206.154 62.572 206.805 62.572C207.317 62.572 207.792 62.4813 208.229 62.3C208.677 62.1187 209.061 61.8413 209.381 61.468L210.021 62.204C209.648 62.652 209.178 62.9933 208.613 63.228C208.058 63.4627 207.445 63.58 206.773 63.58Z" fill="black"/>
<path d="M196.681 55.02C197.363 55.02 197.961 55.1533 198.473 55.42C198.995 55.676 199.401 56.0707 199.689 56.604C199.987 57.1373 200.137 57.8093 200.137 58.62V63.5H199.001V58.732C199.001 57.8467 198.777 57.18 198.329 56.732C197.891 56.2733 197.273 56.044 196.473 56.044C195.875 56.044 195.353 56.1667 194.905 56.412C194.467 56.6467 194.126 56.9933 193.881 57.452C193.646 57.9 193.529 58.444 193.529 59.084V63.5H192.393V51.628H193.529V57.404L193.305 56.972C193.571 56.364 193.998 55.8893 194.585 55.548C195.171 55.196 195.87 55.02 196.681 55.02Z" fill="black"/>
<path d="M185.997 63.596C185.154 63.596 184.375 63.4573 183.661 63.18C182.946 62.892 182.327 62.492 181.805 61.98C181.282 61.468 180.871 60.8653 180.573 60.172C180.285 59.4787 180.141 58.7213 180.141 57.9C180.141 57.0787 180.285 56.3213 180.573 55.628C180.871 54.9347 181.282 54.332 181.805 53.82C182.338 53.308 182.962 52.9133 183.677 52.636C184.391 52.348 185.17 52.204 186.013 52.204C186.823 52.204 187.586 52.3427 188.301 52.62C189.015 52.8867 189.618 53.292 190.109 53.836L189.357 54.588C188.898 54.1187 188.391 53.7827 187.837 53.58C187.282 53.3667 186.685 53.26 186.045 53.26C185.373 53.26 184.749 53.3773 184.173 53.612C183.597 53.836 183.095 54.1613 182.669 54.588C182.242 55.004 181.906 55.4947 181.661 56.06C181.426 56.6147 181.309 57.228 181.309 57.9C181.309 58.572 181.426 59.1907 181.661 59.756C181.906 60.3107 182.242 60.8013 182.669 61.228C183.095 61.644 183.597 61.9693 184.173 62.204C184.749 62.428 185.373 62.54 186.045 62.54C186.685 62.54 187.282 62.4333 187.837 62.22C188.391 62.0067 188.898 61.6653 189.357 61.196L190.109 61.948C189.618 62.492 189.015 62.9027 188.301 63.18C187.586 63.4573 186.818 63.596 185.997 63.596Z" fill="black"/>
<path d="M168.097 66.684C167.703 66.684 167.324 66.62 166.961 66.492C166.609 66.364 166.305 66.172 166.049 65.916L166.577 65.068C166.791 65.2707 167.02 65.4253 167.265 65.532C167.521 65.6493 167.804 65.708 168.113 65.708C168.487 65.708 168.807 65.6013 169.073 65.388C169.351 65.1853 169.612 64.8227 169.857 64.3L170.401 63.068L170.529 62.892L173.985 55.1H175.105L170.897 64.508C170.663 65.052 170.401 65.484 170.113 65.804C169.836 66.124 169.532 66.348 169.201 66.476C168.871 66.6147 168.503 66.684 168.097 66.684ZM170.337 63.74L166.465 55.1H167.649L171.073 62.812L170.337 63.74Z" fill="black"/>
<path d="M161.76 63.58C161.024 63.58 160.362 63.4147 159.776 63.084C159.189 62.7427 158.725 62.252 158.384 61.612C158.042 60.972 157.872 60.1987 157.872 59.292C157.872 58.3747 158.042 57.6013 158.384 56.972C158.736 56.332 159.205 55.8467 159.792 55.516C160.378 55.1853 161.034 55.02 161.76 55.02C162.56 55.02 163.274 55.2013 163.904 55.564C164.544 55.916 165.045 56.412 165.408 57.052C165.77 57.692 165.952 58.4387 165.952 59.292C165.952 60.1347 165.77 60.8813 165.408 61.532C165.045 62.172 164.544 62.6733 163.904 63.036C163.274 63.3987 162.56 63.58 161.76 63.58ZM157.424 63.5V51.628H158.56V57.58L158.4 59.276L158.512 60.972V63.5H157.424ZM161.68 62.572C162.277 62.572 162.81 62.4387 163.28 62.172C163.749 61.8947 164.122 61.5107 164.4 61.02C164.677 60.5187 164.816 59.9427 164.816 59.292C164.816 58.6307 164.677 58.0547 164.4 57.564C164.122 57.0733 163.749 56.6947 163.28 56.428C162.81 56.1507 162.277 56.012 161.68 56.012C161.082 56.012 160.544 56.1507 160.064 56.428C159.594 56.6947 159.221 57.0733 158.944 57.564C158.677 58.0547 158.544 58.6307 158.544 59.292C158.544 59.9427 158.677 60.5187 158.944 61.02C159.221 61.5107 159.594 61.8947 160.064 62.172C160.544 62.4387 161.082 62.572 161.68 62.572Z" fill="black"/>
</svg>
