<svg width="24" height="24" viewBox="0 0 24 24" fill="none" xmlns="http://www.w3.org/2000/svg">
<g clip-path="url(#clip0_296_20293)">
<path d="M11.9999 1.33301C9.89026 1.33301 7.82797 1.9586 6.07384 3.13067C4.31972 4.30273 2.95254 5.96864 2.14521 7.91772C1.33787 9.8668 1.12664 12.0115 1.53821 14.0806C1.94979 16.1498 2.96569 18.0504 4.45745 19.5421C5.94921 21.0339 7.84983 22.0498 9.91896 22.4614C11.9881 22.873 14.1328 22.6617 16.0819 21.8544C18.031 21.0471 19.6969 19.6799 20.8689 17.9258C22.041 16.1716 22.6666 14.1093 22.6666 11.9997C22.6666 9.1707 21.5428 6.45759 19.5424 4.4572C17.542 2.45681 14.8289 1.33301 11.9999 1.33301ZM11.9999 21.333C10.154 21.333 8.34946 20.7856 6.8146 19.7601C5.27974 18.7345 4.08347 17.2768 3.37705 15.5714C2.67063 13.8659 2.4858 11.9893 2.84593 10.1788C3.20606 8.36834 4.09497 6.7053 5.40026 5.40001C6.70555 4.09472 8.36859 3.20581 10.1791 2.84568C11.9896 2.48555 13.8662 2.67038 15.5716 3.3768C17.2771 4.08322 18.7347 5.27949 19.7603 6.81435C20.7859 8.34921 21.3333 10.1537 21.3333 11.9997C21.3333 14.475 20.3499 16.849 18.5996 18.5993C16.8492 20.3497 14.4753 21.333 11.9999 21.333Z" fill="white"/>
<path d="M12.6134 12.2667V7.16667C12.6134 6.98986 12.5431 6.82029 12.4181 6.69526C12.2931 6.57024 12.1235 6.5 11.9467 6.5C11.7699 6.5 11.6003 6.57024 11.4753 6.69526C11.3503 6.82029 11.28 6.98986 11.28 7.16667V12.98L15.2134 15.6467C15.2858 15.7012 15.3686 15.7403 15.4567 15.7617C15.5448 15.7831 15.6364 15.7863 15.7257 15.7711C15.8151 15.7559 15.9005 15.7227 15.9766 15.6734C16.0526 15.6241 16.1179 15.5598 16.1683 15.4845C16.2187 15.4091 16.2532 15.3242 16.2696 15.2351C16.2861 15.1459 16.2843 15.0544 16.2641 14.966C16.244 14.8776 16.2061 14.7942 16.1527 14.7209C16.0992 14.6477 16.0314 14.5861 15.9534 14.54L12.6134 12.2667Z" fill="white"/>
<path d="M5.33339 11.9598C5.32729 10.7604 5.64679 9.58196 6.25781 8.54996C6.86883 7.51796 7.74847 6.67113 8.80295 6.09976C9.85742 5.52838 11.0472 5.25389 12.2454 5.30555C13.4436 5.35721 14.6053 5.73308 15.6067 6.39309L16.1734 5.48642C15.2222 4.86335 14.1448 4.45868 13.0187 4.30148C11.8925 4.14428 10.7455 4.23845 9.66008 4.57722C8.57464 4.91599 7.5777 5.49096 6.74088 6.26081C5.90406 7.03067 5.24813 7.97631 4.82021 9.0298C4.39229 10.0833 4.20301 11.2185 4.26596 12.3538C4.32891 13.4891 4.64253 14.5965 5.18428 15.5962C5.72604 16.5959 6.48249 17.4632 7.39929 18.1359C8.31609 18.8085 9.37048 19.2697 10.4867 19.4864L10.6667 18.4664C9.16538 18.16 7.81543 17.3457 6.84406 16.1606C5.87269 14.9756 5.33921 13.492 5.33339 11.9598Z" fill="white"/>
</g>
<defs>
<clipPath id="clip0_296_20293">
<rect width="24" height="24" fill="white"/>
</clipPath>
</defs>
</svg>
