<svg width="28" height="28" viewBox="0 0 28 28" fill="none" xmlns="http://www.w3.org/2000/svg">
<g clip-path="url(#clip0_612_14108)">
<path d="M9.05615 14.1075C9.05615 14.7007 8.58452 15.1522 7.9869 15.1522C7.53977 15.1522 7.20902 14.8993 7.20902 14.4233C7.20902 13.8301 7.67102 13.3541 8.26427 13.3541C8.71665 13.3541 9.05615 13.6315 9.05615 14.1075ZM3.9129 11.7502H3.68452C3.6119 11.7502 3.5384 11.7992 3.52877 11.8815L3.31965 13.18L3.71865 13.1651C4.25327 13.1651 4.66627 13.0925 4.7634 12.4747C4.8754 11.8228 4.4624 11.7502 3.9129 11.7502ZM17.7186 11.7502H17.4999C17.4124 11.7502 17.3538 11.7992 17.3441 11.8815L17.1403 13.18L17.5288 13.1651C18.1605 13.1651 18.598 13.019 18.598 12.2901C18.5928 11.7747 18.1325 11.7502 17.7186 11.7502ZM27.9999 5.44495V22.5565C27.9992 23.1752 27.7531 23.7683 27.3156 24.2058C26.8781 24.6433 26.285 24.8894 25.6663 24.8901H2.33265C1.71395 24.8894 1.12078 24.6433 0.683294 24.2058C0.245805 23.7683 -0.000281781 23.1752 -0.000976562 22.5565V5.44495C-0.000281781 4.82625 0.245805 4.23309 0.683294 3.7956C1.12078 3.35811 1.71395 3.11202 2.33265 3.11133H25.6663C26.285 3.11202 26.8781 3.35811 27.3156 3.7956C27.7531 4.23309 27.9992 4.82625 27.9999 5.44495ZM6.2369 12.0267C6.2369 11.0056 5.4494 10.6652 4.5499 10.6652H2.60565C2.54284 10.6657 2.4824 10.6892 2.43578 10.7313C2.38917 10.7734 2.35963 10.8311 2.35277 10.8936L1.55565 15.8566C1.54077 15.9537 1.61427 16.0508 1.7114 16.0508H2.6354C2.76665 16.0508 2.88827 15.91 2.90315 15.7735L3.1219 14.4802C3.1709 14.1302 3.76327 14.2518 3.9969 14.2518C5.38727 14.2518 6.23777 13.4258 6.23777 12.0258L6.2369 12.0267ZM10.3301 12.4546H9.40615C9.22152 12.4546 9.2119 12.7223 9.20227 12.8536C8.92052 12.4406 8.5119 12.3671 8.0499 12.3671C6.85902 12.3671 5.9499 13.4118 5.9499 14.5642C5.9499 15.5118 6.54315 16.1296 7.49077 16.1296C7.92827 16.1296 8.47252 15.8916 8.77877 15.5512C8.75073 15.6496 8.73429 15.7509 8.72977 15.8531C8.72977 15.9651 8.77877 16.0473 8.88552 16.0473H9.72202C9.85327 16.0473 9.96527 15.9065 9.98977 15.77L10.4859 12.6445C10.5008 12.5517 10.4273 12.4546 10.3301 12.4546ZM12.2989 17.2137L15.3955 12.7118C15.42 12.6873 15.42 12.6628 15.42 12.6296C15.42 12.5473 15.3474 12.4598 15.2643 12.4598H14.3306C14.2873 12.4617 14.2449 12.4737 14.2069 12.4948C14.169 12.5159 14.1364 12.5456 14.1119 12.5815L12.8239 14.4776L12.2893 12.655C12.2689 12.5997 12.2325 12.5518 12.1849 12.5172C12.1372 12.4826 12.0804 12.4629 12.0215 12.4607H11.1124C11.0293 12.4607 10.9566 12.5482 10.9566 12.6305C10.9566 12.6891 11.9043 15.392 11.9874 15.6492C11.8561 15.8338 10.9908 17.0396 10.9908 17.1857C10.9908 17.2732 11.0634 17.3415 11.1465 17.3415H12.0801C12.1238 17.3384 12.1661 17.3255 12.204 17.3036C12.2419 17.2818 12.2744 17.2516 12.2989 17.2155V17.2137ZM20.0426 12.0267C20.0426 11.0056 19.2551 10.6652 18.3556 10.6652H16.4254C16.3609 10.6652 16.2985 10.6882 16.2495 10.7301C16.2004 10.7719 16.1678 10.8299 16.1576 10.8936L15.3701 15.8522C15.3605 15.9493 15.4331 16.0465 15.5259 16.0465H16.5225C16.6196 16.0465 16.6923 15.9738 16.7168 15.8907L16.9355 14.4811C16.9845 14.1311 17.5778 14.2527 17.8105 14.2527C19.1913 14.2527 20.0426 13.4267 20.0426 12.0267ZM24.135 12.4546H23.211C23.0264 12.4546 23.0168 12.7223 23.0019 12.8536C22.7341 12.4406 22.3211 12.3671 21.8495 12.3671C20.6586 12.3671 19.7495 13.4118 19.7495 14.5642C19.7495 15.5118 20.3428 16.1296 21.2904 16.1296C21.7428 16.1296 22.287 15.8916 22.5784 15.5512C22.5635 15.6238 22.5294 15.7796 22.5294 15.8531C22.5294 15.9651 22.5784 16.0473 22.6851 16.0473H23.526C23.6573 16.0473 23.7693 15.9065 23.7938 15.77L24.2899 12.6445C24.3048 12.5517 24.2321 12.4546 24.135 12.4546ZM26.4441 10.8358C26.4441 10.7387 26.3715 10.6661 26.2884 10.6661H25.3889C25.3163 10.6661 25.2428 10.7247 25.2331 10.7973L24.4456 15.8531L24.4316 15.8776C24.4316 15.9651 24.5043 16.0473 24.6014 16.0473H25.4038C25.5254 16.0473 25.647 15.9065 25.6566 15.77L26.4441 10.8507V10.8358ZM22.0691 13.3541C21.4759 13.3541 21.0139 13.8257 21.0139 14.4233C21.0139 14.895 21.3543 15.1522 21.8014 15.1522C22.385 15.1522 22.8566 14.7051 22.8566 14.1075C22.8619 13.6315 22.5215 13.3541 22.0691 13.3541Z" fill="white"/>
</g>
<defs>
<clipPath id="clip0_612_14108">
<rect width="28" height="28" fill="white"/>
</clipPath>
</defs>
</svg>
