<svg width="55" height="24" viewBox="0 0 55 24" fill="none" xmlns="http://www.w3.org/2000/svg">
<g clip-path="url(#clip0_612_14098)">
<path d="M10.0497 3.45436C9.40516 4.22829 8.37369 4.83893 7.34234 4.75162C7.21343 3.70518 7.71831 2.59311 8.30924 1.90627C8.95377 1.11054 10.0819 0.543602 10.9951 0.5C11.1025 1.59016 10.6835 2.65851 10.0497 3.45436ZM10.9845 4.95884C9.49109 4.87163 8.21267 5.81998 7.50358 5.81998C6.78385 5.81998 5.69867 5.00244 4.51692 5.02424C2.98068 5.04604 1.55176 5.92898 0.767472 7.33536C-0.844071 10.148 0.348527 14.3125 1.90625 16.6019C2.66905 17.7356 3.58225 18.9784 4.78548 18.9348C5.92437 18.8912 6.37554 18.1826 7.75075 18.1826C9.1366 18.1826 9.53417 18.9348 10.7374 18.913C11.9836 18.8912 12.7679 17.7793 13.5307 16.6455C14.4008 15.3591 14.7554 14.1053 14.7769 14.0399C14.7554 14.0181 12.3704 13.0916 12.3489 10.3006C12.3275 7.9677 14.229 6.85574 14.315 6.79034C13.2405 5.17685 11.5647 5.00244 10.9845 4.95884ZM19.6115 1.79727V18.7932H22.2113V12.9826H25.8104C29.0978 12.9826 31.4077 10.6933 31.4077 7.37907C31.4077 4.065 29.1408 1.79737 25.8963 1.79737L19.6115 1.79727ZM22.2113 4.02129H25.2087C27.4649 4.02129 28.7541 5.24225 28.7541 7.38986C28.7541 9.53747 27.4649 10.7694 25.198 10.7694H22.2113V4.02129ZM36.1562 18.9239C37.7892 18.9239 39.304 18.0845 39.9916 16.7545H40.0453V18.7931H42.4519V10.3333C42.4519 7.88049 40.5181 6.29971 37.5421 6.29971C34.781 6.29971 32.7398 7.90229 32.6646 10.1044H35.0067C35.2001 9.05785 36.1561 8.37101 37.4669 8.37101C39.0569 8.37101 39.9486 9.12326 39.9486 10.5078V11.4453L36.7041 11.6415C33.6852 11.8268 32.0523 13.0806 32.0523 15.261C32.0523 17.4631 33.7389 18.9239 36.1562 18.9239ZM36.8545 16.9071C35.4687 16.9071 34.5876 16.2312 34.5876 15.1955C34.5876 14.1272 35.4364 13.5058 37.0587 13.4077L39.9486 13.2224V14.1816C39.9486 15.7733 38.6165 16.9071 36.8546 16.9071M45.6642 23.4154C48.1997 23.4154 49.3922 22.4344 50.4343 19.4581L55.0002 6.46321H52.3573L49.2954 16.5036H49.2417L46.1799 6.46321H43.4618L47.8665 18.8367L47.6302 19.5889C47.2327 20.8644 46.5881 21.355 45.4385 21.355C45.2344 21.355 44.837 21.3332 44.6757 21.3114V23.35C44.8261 23.3936 45.4707 23.4154 45.6641 23.4154" fill="white"/>
</g>
<defs>
<clipPath id="clip0_612_14098">
<rect width="55" height="23" fill="white" transform="translate(0 0.5)"/>
</clipPath>
</defs>
</svg>
