<svg width="42" height="20" viewBox="0 0 42 20" fill="none" xmlns="http://www.w3.org/2000/svg">
<g clip-path="url(#clip0_612_14100)">
<path d="M15.9464 0.743333L10.4475 14.0697H6.86011L4.15406 3.434C3.99 2.7805 3.84743 2.54 3.34819 2.26367C2.53214 1.81333 1.18453 1.39217 0 1.13017L0.0798984 0.743333H5.85556C6.59056 0.743333 7.25238 1.2405 7.42071 2.10133L8.85052 9.8135L12.3805 0.743333H15.9464ZM20.7961 0.743333L17.9901 14.0697H14.596L17.4023 0.743333H20.7961ZM30.0026 9.71867C30.0167 6.20217 25.2162 6.007 25.2476 4.43583C25.2591 3.95817 25.707 3.44967 26.6874 3.31967C27.173 3.25583 28.5147 3.205 30.0344 3.91633L30.629 1.08867C29.8125 0.788667 28.7616 0.5 27.4545 0.5C24.0995 0.5 21.7394 2.31033 21.7206 4.90467C21.6986 6.82367 23.4063 7.89317 24.6906 8.53233C26.0134 9.185 26.457 9.6045 26.451 10.1878C26.4415 11.082 25.3944 11.4778 24.421 11.4925C22.7141 11.52 21.7247 11.0238 20.9354 10.6503L20.3193 13.5717C21.1134 13.9413 22.5768 14.2625 24.0926 14.2788C27.6593 14.2788 29.9921 12.4892 30.0026 9.71867ZM38.862 14.0698H42L39.2585 0.743333H36.3633C35.7103 0.743333 35.1615 1.12833 34.9181 1.72017L29.8256 14.0697H33.3895L34.0965 12.079H38.4507L38.862 14.0698ZM35.0738 9.34833L36.8607 4.34383L37.8873 9.34833H35.0738ZM25.1398 17.738H23.7607V19.0418H25.3032V19.4338H23.2961V15.8167H25.2241V16.2087H23.7607V17.3515H25.1396L25.1398 17.738ZM26.0157 15.6237H26.4803V19.4337H26.0157V15.6237ZM27.6527 18.2208C27.6632 18.8597 28.0596 19.1225 28.5295 19.1225C28.8625 19.1225 29.0684 19.0635 29.2377 18.9885L29.3221 19.3267C29.1583 19.4017 28.8732 19.4928 28.4662 19.4928C27.6793 19.4928 27.2093 18.9617 27.2093 18.178C27.2093 17.3947 27.6632 16.7827 28.4082 16.7827C29.2482 16.7827 29.4648 17.5235 29.4648 18.001C29.4648 18.0975 29.4594 18.1672 29.4487 18.221L27.6527 18.2208ZM29.0156 17.8828C29.021 17.5878 28.8942 17.1208 28.3712 17.1208C27.8957 17.1208 27.6949 17.5555 27.6578 17.8828H29.0156ZM31.994 19.3425C31.8726 19.4017 31.603 19.493 31.2598 19.493C30.4886 19.493 29.9867 18.9617 29.9867 18.1673C29.9867 17.3677 30.5253 16.7828 31.3601 16.7828C31.6347 16.7828 31.8777 16.8523 32.0045 16.9223L31.8992 17.2818C31.7878 17.2228 31.6135 17.1582 31.3601 17.1582C30.7735 17.1582 30.4569 17.6037 30.4569 18.1407C30.4569 18.7415 30.8372 19.1118 31.3443 19.1118C31.6084 19.1118 31.7827 19.0475 31.9147 18.9885L31.994 19.3425ZM33.298 16.2138V16.8363H33.9634V17.1957H33.298V18.5965C33.298 18.9188 33.3879 19.101 33.6466 19.101C33.7733 19.101 33.8474 19.0905 33.9161 19.0687L33.9373 19.4287C33.8474 19.4607 33.7048 19.4928 33.5252 19.4928C33.3085 19.4928 33.1341 19.4177 33.0233 19.2945C32.8965 19.1493 32.8437 18.9188 32.8437 18.6128V17.1957H32.4473V16.8363H32.8437V16.3533L33.298 16.2138ZM34.6126 17.6468C34.6126 17.3408 34.607 17.078 34.5914 16.8363H34.9983L35.0196 17.3513H35.0351C35.1515 17.0028 35.4365 16.7827 35.7481 16.7827C35.7958 16.7827 35.8329 16.7882 35.8752 16.7933V17.239C35.8276 17.228 35.7802 17.228 35.7164 17.228C35.3893 17.228 35.1565 17.4748 35.0933 17.8293C35.0824 17.9021 35.0771 17.9757 35.0774 18.0493V19.434H34.6126V17.6468ZM38.7324 18.1135C38.7324 19.0742 38.0718 19.4928 37.4592 19.4928C36.7723 19.4928 36.2337 18.9775 36.2337 18.1567C36.2337 17.2925 36.7989 16.7828 37.5016 16.7828C38.2357 16.7828 38.7324 17.3243 38.7324 18.1135ZM36.709 18.1407C36.709 18.7095 37.026 19.139 37.4802 19.139C37.9242 19.139 38.2568 18.7147 38.2568 18.1298C38.2568 17.6898 38.0402 17.1368 37.4907 17.1368C36.9469 17.1368 36.709 17.6523 36.709 18.1407ZM39.4447 17.5395C39.4447 17.266 39.4391 17.0512 39.4234 16.8367H39.8355L39.8619 17.266H39.8724C39.9993 17.0243 40.2951 16.783 40.7177 16.783C41.0714 16.783 41.621 16.9977 41.621 17.8882V19.434H41.1562V17.9367C41.1562 17.5183 41.003 17.1692 40.5646 17.1692C40.2634 17.1692 40.0255 17.3893 39.9413 17.6522C39.92 17.7113 39.9095 17.7917 39.9095 17.8723V19.434H39.4447V17.5395Z" fill="white"/>
</g>
<defs>
<clipPath id="clip0_612_14100">
<rect width="42" height="19" fill="white" transform="translate(0 0.5)"/>
</clipPath>
</defs>
</svg>
