<svg width="45" height="20" viewBox="0 0 45 20" fill="none" xmlns="http://www.w3.org/2000/svg">
<path d="M7.43128 0.000614139C6.05365 -4.77861e-06 4.70304 0.428308 3.5305 1.23765C2.35797 2.04698 1.40975 3.20543 0.791903 4.58341C0.2712 5.74188 0 7.02066 0 8.31743C0 9.6142 0.2712 10.893 0.791903 12.0514C1.40975 13.4294 2.35797 14.5879 3.5305 15.3972C4.70304 16.2065 6.05365 16.6349 7.43128 16.6342C9.43753 16.6342 11.125 15.8956 12.3569 14.6261C13.7594 13.1783 14.5694 11.0379 14.5694 8.50733C14.5665 7.94053 14.5227 7.37492 14.4382 6.81606H7.43315V10.0181H11.4457C11.3635 10.5295 11.1899 11.0169 10.9354 11.4514C10.6809 11.8859 10.3506 12.2584 9.9644 12.5467C9.2969 13.0524 8.43815 13.3419 7.43315 13.3419C5.4944 13.3419 3.85003 11.8794 3.26128 9.90903C2.95102 8.87637 2.95102 7.75849 3.26128 6.72583C3.85003 4.75338 5.4944 3.29293 7.43315 3.29293C8.49261 3.27308 9.51645 3.72085 10.2832 4.53935L12.4057 2.16821C11.0616 0.752083 9.2771 -0.0250099 7.43128 0.000614139ZM19.6207 1.15471V15.6333H21.2819V9.76844H24.0288C25.1588 9.76844 26.11 9.35716 26.8825 8.53461C27.2672 8.14892 27.5727 7.67469 27.7783 7.14444C27.9838 6.61419 28.0844 6.04047 28.0732 5.46262C28.081 4.88779 27.9788 4.31773 27.7734 3.79077C27.568 3.2638 27.2643 2.79212 26.8825 2.40742C26.5042 1.99819 26.0573 1.67666 25.5675 1.46132C25.0778 1.24598 24.5549 1.14107 24.0288 1.15261L19.6207 1.15471ZM24.1713 2.93831C24.4611 2.94444 24.7469 3.01535 25.0119 3.14688C25.2769 3.27841 25.5158 3.4679 25.7144 3.7042C25.9257 3.93416 26.0936 4.20918 26.2082 4.51301C26.3229 4.81683 26.382 5.1433 26.382 5.47311C26.382 5.80293 26.3229 6.12939 26.2082 6.43322C26.0936 6.73705 25.9257 7.01206 25.7144 7.24202C25.5021 7.48823 25.2461 7.68206 24.963 7.81106C24.6798 7.94007 24.3756 8.0014 24.07 7.99114H21.2819V2.93831H24.1713ZM31.9038 5.40387C30.3263 5.40387 29.1344 6.05086 28.3282 7.34484L29.7925 8.37513C30.3325 7.49942 31.0669 7.06157 31.9957 7.06157C32.588 7.05238 33.1614 7.29454 33.6007 7.73933C33.8181 7.93877 33.9926 8.19035 34.1114 8.47548C34.2302 8.7606 34.2902 9.07197 34.2869 9.38654V9.81041C33.6494 9.40472 32.8369 9.20258 31.8494 9.20398C30.6919 9.20398 29.7675 9.50754 29.0763 10.1147C28.3825 10.719 28.0363 11.5339 28.0375 12.5592C28.0305 13.02 28.1152 13.4767 28.2855 13.8962C28.4557 14.3158 28.7073 14.6877 29.0219 14.9849C29.6782 15.6326 30.4938 15.9565 31.4688 15.9565C32.6125 15.9565 33.5282 15.3899 34.2157 14.2568H34.2869V15.6312H35.8769V9.52713C35.8769 8.24713 35.5219 7.23993 34.8119 6.5055C34.0994 5.77108 33.13 5.40387 31.9038 5.40387ZM36.1469 5.72701L39.7957 15.0059L37.7369 20H39.4525L45.0007 5.72492H43.1913L40.6263 12.8404H40.5888L37.9525 5.72701H36.1469ZM32.1232 10.6959C33.0494 10.6959 33.7719 10.9267 34.2907 11.3884C34.2907 12.169 34.0157 12.8495 33.4657 13.4301C33.2209 13.7061 32.9297 13.9251 32.6088 14.0742C32.2879 14.2233 31.9437 14.2996 31.5963 14.2988C31.1277 14.3089 30.6704 14.1369 30.3025 13.812C30.1315 13.6731 29.9925 13.4907 29.897 13.2798C29.8015 13.0689 29.7522 12.8356 29.7532 12.5991C29.7532 12.0633 29.98 11.6108 30.4338 11.2415C30.8838 10.8778 31.4482 10.6959 32.1232 10.6959Z" fill="white"/>
</svg>
