<svg width="59" height="20" viewBox="0 0 59 20" fill="none" xmlns="http://www.w3.org/2000/svg">
<path d="M12.3531 11.5294L17.2313 11.5195L17.0543 12.6365L12.9727 16.5407H16.3953L16.1986 17.7367H11.1631L11.3696 16.5012L15.2741 12.7353H12.1564L12.3531 11.5294Z" fill="white"/>
<path d="M7.03204 9.62128C6.92386 9.51256 6.77633 9.4236 6.60914 9.35441C6.43211 9.28522 6.23541 9.2358 6.03871 9.19626C5.79283 9.15672 5.55679 9.13695 5.3896 9.12707C5.23223 9.11719 5.13388 9.11719 5.13388 9.11719H2.99968H1.41624L0 17.7363H1.32773L1.84898 14.5437L4.42576 14.5535C4.42576 14.5535 5.42894 14.5931 6.13706 14.2175C6.84518 13.8419 7.04188 12.9819 7.04188 12.9819C7.04188 12.9819 7.12056 12.6656 7.1894 12.2703C7.25825 11.8452 7.33693 11.3313 7.36644 11.0545C7.38611 10.9359 7.39594 10.8568 7.39594 10.8568C7.39594 10.8568 7.41561 10.7679 7.41561 10.6295C7.41561 10.4417 7.38611 10.155 7.23858 9.87828C7.16973 9.78932 7.11072 9.70036 7.03204 9.62128ZM6.0092 11.1435C6.0092 11.1632 5.89118 11.8551 5.73382 12.6755C5.67481 12.9918 5.43877 13.1599 5.16339 13.2192C4.71098 13.318 4.21923 13.2982 4.21923 13.2982L2.06536 13.2884L2.53744 10.4219L4.48477 10.4318C4.48477 10.4318 4.61263 10.4318 4.79949 10.4318C5.00603 10.4318 5.28141 10.4417 5.51745 10.4713C5.71415 10.501 5.87151 10.5405 5.92069 10.5998C5.98953 10.6789 6.0092 10.7876 6.01904 10.8865C6.02887 11.015 6.0092 11.1336 6.0092 11.1435Z" fill="white"/>
<path d="M23.8304 9.11719H25.1089L23.6829 17.7363H22.4043L23.8304 9.11719Z" fill="white"/>
<path d="M30.646 11.5294L31.8754 11.5195L32.3081 15.8983L34.1866 11.5195H35.7012L36.1438 15.918L38.0223 11.5195H39.3008L36.5962 17.7367H35.0914L34.6587 13.3877L32.7507 17.7367H31.2754L30.646 11.5294Z" fill="white"/>
<path d="M21.4797 11.5778C21.1257 11.4592 20.5061 11.4395 19.975 11.4395C19.4636 11.4493 19.2374 11.4691 19.0407 11.5086C19.0407 11.5086 18.1358 11.6371 17.6244 12.2796C17.113 12.9221 16.9556 14.3158 16.9556 14.3158C16.9556 14.3158 16.6507 15.8577 16.7393 16.3717C16.8278 16.8857 16.9851 17.3601 17.5654 17.5875C18.1457 17.8148 18.6374 17.8049 18.6374 17.8049C18.6374 17.8049 19.6701 17.884 20.4471 17.7061C21.224 17.5282 21.6371 16.9747 21.6371 16.9747C21.6371 16.9747 21.824 16.7374 21.9518 16.4508C22.0797 16.1641 22.119 15.9763 22.1289 15.9467L22.2075 15.6106H20.8798C20.8798 15.6106 20.811 16.4903 20.093 16.5694C19.3751 16.6485 19.0013 16.6188 18.8538 16.6089C18.7161 16.599 17.949 16.6386 18.008 15.9961C18.008 15.9862 18.008 15.9763 18.008 15.9566C18.0375 15.2251 18.126 15.0373 18.126 15.0373L22.2862 15.0274L22.4633 13.9896C22.6895 12.8134 22.5419 11.9238 21.4797 11.5778ZM21.1945 13.8413H18.3424L18.4506 13.3867C18.4506 13.3867 18.5489 13.0308 18.7456 12.8826C18.9423 12.7343 19.198 12.7046 19.4341 12.6849C19.6701 12.6651 20.2995 12.6157 20.8208 12.7244C20.988 12.7541 21.1552 12.8529 21.1945 13.0012C21.3027 13.3273 21.1945 13.8413 21.1945 13.8413Z" fill="white"/>
<path d="M18.0376 15.9668C18.0376 15.9768 18.0376 15.9867 18.0376 15.9967C18.0277 16.0465 18.0376 15.9668 18.0376 15.9668Z" fill="white"/>
<path d="M29.3186 11.5778C28.9646 11.4592 28.3449 11.4395 27.8139 11.4395C27.3024 11.4493 27.0762 11.4691 26.8795 11.5086C26.8795 11.5086 25.9747 11.6371 25.4633 12.2796C24.9519 12.9221 24.7945 14.3158 24.7945 14.3158C24.7945 14.3158 24.4896 15.8577 24.5781 16.3717C24.6666 16.8857 24.824 17.3601 25.4043 17.5875C25.9845 17.8148 26.4763 17.8049 26.4763 17.8049C26.4763 17.8049 27.509 17.884 28.2859 17.7061C29.0629 17.5183 29.476 16.9747 29.476 16.9747C29.476 16.9747 29.6628 16.7374 29.7907 16.4508C29.9186 16.1641 29.9579 15.9763 29.9677 15.9467L30.0464 15.6106H28.7187C28.7187 15.6106 28.6498 16.4903 27.9319 16.5694C27.2139 16.6485 26.8402 16.6188 26.6927 16.6188C26.555 16.6089 25.7878 16.6485 25.8468 16.006C25.8468 15.9961 25.8468 15.9862 25.8468 15.9665C25.8764 15.235 25.9649 15.0472 25.9649 15.0472L30.1251 15.0373L30.3021 13.9995C30.5283 12.8233 30.3906 11.9238 29.3186 11.5778ZM29.0334 13.8413H26.1812L26.2894 13.3867C26.2894 13.3867 26.3878 13.0308 26.5845 12.8826C26.7812 12.7343 27.0369 12.7046 27.2729 12.6849C27.509 12.6651 28.1384 12.6157 28.6597 12.7244C28.8269 12.7541 28.9941 12.8529 29.0334 13.0012C29.1416 13.3273 29.0334 13.8413 29.0334 13.8413Z" fill="white"/>
<path d="M40.7658 11.5295L41.5821 16.0763L43.8933 11.5295L45.1915 11.5394L41.8575 18.0334C41.8575 18.0334 41.2575 19.2096 40.8838 19.5062C40.5101 19.8027 40.2839 19.9411 39.979 19.9707C39.6741 20.0004 39.5462 20.0201 39.261 19.9707L38.9463 19.9114L39.143 18.7549C39.143 18.7549 39.6642 18.8538 39.9691 18.7253C40.274 18.6067 40.5199 18.0729 40.5199 18.0729L40.6773 17.8061L39.4675 11.5098L40.7658 11.5295Z" fill="white"/>
<path d="M45.6741 12.1415H47.0116L47.0903 11.6176C47.0903 11.6176 47.2378 10.6687 47.5526 10.4908C47.6509 10.4315 47.8181 10.3821 48.0148 10.3426C48.3689 10.2832 48.8114 10.2734 49.1753 10.2832C49.7359 10.303 49.9425 10.3129 50.5129 10.3722C51.0833 10.4414 50.9358 10.985 50.9358 10.985L50.8276 11.8054C50.8276 11.8054 50.7785 12.1711 50.6506 12.3985C50.5326 12.6061 50.2179 12.7444 50.031 12.8037C49.5884 12.952 48.0738 13.3375 48.0738 13.3375L46.8838 13.6834C46.8838 13.6834 46.156 13.9009 45.7429 14.3457C45.3298 14.8004 45.1725 15.3143 45.1135 15.5911C45.0545 15.858 44.7397 17.7261 44.7397 17.7261H51.162L51.3784 16.4412L46.3035 16.451L46.392 15.9272C46.392 15.9272 46.451 15.3835 46.6674 15.2056C46.7363 15.1463 46.7658 15.0771 47.1788 14.9289C47.4247 14.8399 48.2509 14.6224 48.2509 14.6224L50.1687 14.0986C50.1687 14.0986 51.2112 13.8317 51.6243 13.2485C52.0373 12.6752 52.1947 11.5781 52.1947 11.5781C52.1947 11.5781 52.3029 10.5106 52.2242 10.1745C52.1357 9.83845 51.821 9.44308 51.4472 9.26516C51.0637 9.09713 50.6703 8.9884 49.5097 9.00817C48.359 9.02794 47.7788 9.07736 47.1985 9.29482C46.6084 9.51227 46.274 9.90764 46.0576 10.4612C45.8118 11.0048 45.6741 12.1415 45.6741 12.1415Z" fill="white"/>
<path d="M57.7607 14.5435L58.6656 9.12695H57.0723L52.1056 14.4842L51.8794 15.8384H56.2166L55.9019 17.746H57.2395L57.5542 15.8384H58.7836L59 14.5435H57.7607ZM56.4428 14.5435H53.6399L57.0526 10.8864L56.4428 14.5435Z" fill="white"/>
<path d="M9.84473 9.82775H13.9361C13.9361 9.82775 14.8508 9.08643 15.4999 8.6021C16.149 8.12766 17.339 7.36657 17.339 7.36657L15.0278 6.2793C15.0278 6.2793 13.0706 7.49506 12.2445 8.06835C11.438 8.6021 9.84473 9.82775 9.84473 9.82775Z" fill="white"/>
<path d="M18.6277 6.60649L16.7295 5.32153C16.7295 5.32153 18.4408 4.34299 20.7323 3.42375C23.0141 2.51439 24.2336 2.12891 24.2336 2.12891L24.6172 3.94761C24.6172 3.94761 22.424 4.68893 21.1651 5.28199C19.8669 5.8454 18.6277 6.60649 18.6277 6.60649Z" fill="white"/>
<path d="M26.0231 3.55349L25.6887 1.69524C25.6887 1.69524 28.0295 1.07253 30.1735 0.667276C32.3175 0.26202 35.1599 0.0742188 35.1599 0.0742188L34.2157 2.95055C34.2157 2.95055 31.7176 2.6046 29.367 2.93078C27.5475 3.14823 26.0231 3.55349 26.0231 3.55349Z" fill="white"/>
<path d="M35.7109 3.19627L37.2944 0.00364451C37.2944 0.00364451 40.7563 -0.0655454 43.7462 0.399016C46.736 0.863577 49.4701 1.57525 49.4111 1.6049L41.8283 5.58826C41.8283 5.58826 40.058 4.46146 37.855 3.76956C36.6158 3.40384 35.7109 3.19627 35.7109 3.19627Z" fill="white"/>
<path d="M43.1953 6.45809L44.8574 7.73316H58.5478C58.5478 7.73316 58.5183 7.28836 58.1544 6.65577C57.9282 6.2604 57.5151 5.84526 57.0824 5.41035C56.925 5.2522 56.2956 4.75799 55.8235 4.45158C54.6138 3.66083 53.9352 3.35442 52.6861 2.79102L43.1953 6.45809Z" fill="white"/>
<path d="M10.7302 11.5195C10.2187 11.5195 9.72699 11.7271 9.31391 11.9544L9.38276 11.5195H8.02553L6.93384 17.7071H8.30091L8.90084 14.2772C9.0287 13.5853 9.54012 12.7254 10.5531 12.7254H11.2613L11.4776 11.5195H10.7302Z" fill="white"/>
</svg>
