<svg width="32" height="26" viewBox="0 0 32 26" fill="none" xmlns="http://www.w3.org/2000/svg">
<g clipPath="url(#clip0_612_14103)">
<path d="M5.8174 25.375V23.7204C5.8174 23.086 5.43315 22.6724 4.77452 22.6724C4.44527 22.6724 4.08852 22.7827 3.84152 23.1412C3.64952 22.8379 3.37515 22.6724 2.96352 22.6724C2.68902 22.6724 2.41477 22.7551 2.19515 23.0585V22.7276H1.6189V25.375H2.19515V23.9134C2.19515 23.4446 2.44215 23.2239 2.8264 23.2239C3.2104 23.2239 3.40265 23.4722 3.40265 23.9134V25.375H3.9789V23.9134C3.9789 23.4446 4.25315 23.2239 4.6099 23.2239C4.99415 23.2239 5.18615 23.4722 5.18615 23.9134V25.375H5.8174ZM14.3513 22.7276H13.4184V21.9278H12.8421V22.7276H12.3208V23.2514H12.842V24.465C12.842 25.0718 13.089 25.4302 13.7476 25.4302C13.9946 25.4302 14.2689 25.3475 14.4611 25.2372L14.2964 24.7407C14.1318 24.851 13.9398 24.8787 13.8025 24.8787C13.5281 24.8787 13.4184 24.7132 13.4184 24.4374V23.2514H14.3513V22.7276ZM19.2358 22.6723C18.9065 22.6723 18.687 22.8379 18.5498 23.0585V22.7276H17.9735V25.375H18.5498V23.8858C18.5498 23.4446 18.7418 23.1964 19.0985 23.1964C19.2083 23.1964 19.3455 23.224 19.4553 23.2515L19.6199 22.7C19.5101 22.6724 19.3455 22.6724 19.2358 22.6724M11.8543 22.9483C11.5798 22.7552 11.1956 22.6725 10.784 22.6725C10.1255 22.6725 9.68652 23.0034 9.68652 23.5274C9.68652 23.9688 10.0158 24.2169 10.592 24.2997L10.8664 24.3273C11.1683 24.3823 11.3329 24.4651 11.3329 24.6031C11.3329 24.796 11.1134 24.934 10.7291 24.934C10.345 24.934 10.0431 24.796 9.85102 24.6582L9.57665 25.0994C9.87852 25.32 10.2901 25.4303 10.7016 25.4303C11.47 25.4303 11.9091 25.0719 11.9091 24.5754C11.9091 24.1066 11.5524 23.8583 11.0035 23.7757L10.7291 23.748C10.4821 23.7204 10.2901 23.6654 10.2901 23.4999C10.2901 23.3068 10.4821 23.1965 10.784 23.1965C11.1134 23.1965 11.4426 23.3343 11.6073 23.4171L11.8543 22.9483ZM27.1661 22.6725C26.8368 22.6725 26.6173 22.838 26.48 23.0586V22.7277H25.9038V25.3752H26.48V23.886C26.48 23.4448 26.6721 23.1965 27.0288 23.1965C27.1386 23.1965 27.2759 23.2242 27.3856 23.2517L27.5503 22.7002C27.4405 22.6725 27.2759 22.6725 27.1661 22.6725ZM19.812 24.0514C19.812 24.8512 20.3608 25.4303 21.2115 25.4303C21.5956 25.4303 21.87 25.3477 22.1444 25.1271L21.87 24.6582C21.6505 24.8237 21.431 24.9063 21.184 24.9063C20.7175 24.9063 20.3883 24.5754 20.3883 24.0514C20.3883 23.5551 20.7175 23.224 21.184 23.1965C21.431 23.1965 21.6505 23.2792 21.87 23.4448L22.1444 22.9759C21.87 22.7552 21.5956 22.6725 21.2115 22.6725C20.3608 22.6725 19.812 23.2517 19.812 24.0514ZM25.1355 24.0514V22.7277H24.5593V23.0586C24.3671 22.8105 24.0928 22.6725 23.736 22.6725C22.9951 22.6725 22.4189 23.2517 22.4189 24.0514C22.4189 24.8512 22.9951 25.4303 23.736 25.4303C24.1201 25.4303 24.3946 25.2925 24.5593 25.0443V25.3752H25.1355V24.0514ZM23.0225 24.0514C23.0225 23.5826 23.3244 23.1965 23.8183 23.1965C24.2848 23.1965 24.6141 23.5551 24.6141 24.0514C24.6141 24.5203 24.2848 24.9063 23.8183 24.9063C23.3244 24.8787 23.0225 24.5203 23.0225 24.0514ZM16.135 22.6725C15.3666 22.6725 14.8178 23.224 14.8178 24.0514C14.8178 24.8788 15.3665 25.4303 16.1624 25.4303C16.5465 25.4303 16.9308 25.32 17.2326 25.0719L16.9581 24.6582C16.7386 24.8237 16.4643 24.934 16.1899 24.934C15.8331 24.934 15.4764 24.7685 15.394 24.2995H17.3424V24.0791C17.3699 23.224 16.876 22.6725 16.135 22.6725ZM16.1349 23.1689C16.4915 23.1689 16.7386 23.3896 16.7934 23.8033H15.4214C15.4763 23.4448 15.7233 23.1689 16.1349 23.1689ZM30.4314 24.0514V21.6797H29.8551V23.0586C29.663 22.8105 29.3886 22.6725 29.0319 22.6725C28.291 22.6725 27.7148 23.2517 27.7148 24.0514C27.7148 24.8512 28.291 25.4303 29.0319 25.4303C29.4161 25.4303 29.6905 25.2925 29.8551 25.0443V25.3752H30.4314V24.0514ZM28.3185 24.0514C28.3185 23.5826 28.6203 23.1965 29.1143 23.1965C29.5808 23.1965 29.91 23.5551 29.91 24.0514C29.91 24.5203 29.5808 24.9063 29.1143 24.9063C28.6203 24.8787 28.3185 24.5203 28.3185 24.0514ZM9.05515 24.0514V22.7277H8.4789V23.0586C8.28677 22.8105 8.0124 22.6725 7.65565 22.6725C6.91477 22.6725 6.33852 23.2517 6.33852 24.0514C6.33852 24.8512 6.91477 25.4303 7.65565 25.4303C8.0399 25.4303 8.31427 25.2925 8.4789 25.0443V25.3752H9.05515V24.0514ZM6.91477 24.0514C6.91477 23.5826 7.21665 23.1965 7.71052 23.1965C8.17702 23.1965 8.5064 23.5551 8.5064 24.0514C8.5064 24.5203 8.17702 24.9063 7.71052 24.9063C7.21665 24.8787 6.91477 24.5203 6.91477 24.0514Z" fill="white"/>
<path d="M11.6624 2.62305H20.3061V18.2325H11.6624V2.62305Z" fill="white"/>
<path d="M12.2111 10.4283C12.2111 7.25678 13.6929 4.44372 15.9704 2.62349C14.2966 1.29975 12.1838 0.5 9.87875 0.5C4.41787 0.5 0 4.94007 0 10.4283C0 15.9163 4.41787 20.3565 9.87862 20.3565C12.1836 20.3565 14.2965 19.5568 15.9704 18.2329C13.6929 16.4403 12.2111 13.5997 12.2111 10.4283Z" fill="black"/>
<path d="M31.9682 10.4283C31.9682 15.9163 27.5503 20.3565 22.0896 20.3565C19.7846 20.3565 17.6717 19.5568 15.9978 18.2329C18.3028 16.4128 19.7572 13.5997 19.7572 10.4283C19.7572 7.25678 18.2753 4.44372 15.9978 2.62349C17.6716 1.29975 19.7846 0.5 22.0896 0.5C27.5503 0.5 31.9682 4.96771 31.9682 10.4283Z" fill="white"/>
</g>
<defs>
<clipPath id="clip0_612_14103">
<rect width="32" height="25" fill="white" transform="translate(0 0.5)"/>
</clipPath>
</defs>
</svg>
