<svg width="28" height="28" viewBox="0 0 28 28" fill="none" xmlns="http://www.w3.org/2000/svg">
<path fill-rule="evenodd" clip-rule="evenodd" d="M4.75472 3.62963C4.75472 1.62504 6.41042 0 8.45283 0H18.2342C19.215 0 20.1556 0.382406 20.8492 1.06309L26.9168 7.01842C27.6104 7.69911 28 8.62232 28 9.58496V24.3704C28 26.375 26.3443 28 24.3019 28H8.45283C6.41042 28 4.75472 26.375 4.75472 24.3704V21.7778H5.81132V24.3704C5.81132 25.8022 6.99397 26.963 8.45283 26.963H24.3019C25.7608 26.963 26.9434 25.8022 26.9434 24.3704V9.58496C26.9434 9.32138 26.9025 9.06194 26.8242 8.81481H22.717C20.6746 8.81481 19.0189 7.18977 19.0189 5.18519V1.15406C18.7671 1.07717 18.5027 1.03704 18.2342 1.03704H8.45283C6.99397 1.03704 5.81132 2.19778 5.81132 3.62963V12.4444H4.75472V3.62963ZM20.0755 1.7707V5.18519C20.0755 6.61703 21.2581 7.77778 22.717 7.77778H26.1959C26.1872 7.76904 26.1785 7.76035 26.1697 7.75172L20.102 1.79639C20.0932 1.78776 20.0844 1.77919 20.0755 1.7707Z" fill="#113760"/>
<path d="M9.71293 19.153H10.8076C11.1527 19.153 11.451 19.0901 11.7025 18.9643C11.9589 18.8336 12.1562 18.6497 12.2942 18.4126C12.4372 18.1755 12.5087 17.8972 12.5087 17.5778C12.5087 17.2535 12.4372 16.9753 12.2942 16.743C12.1562 16.5058 11.9589 16.3243 11.7025 16.1985C11.451 16.0679 11.1527 16.0025 10.8076 16.0025H9.71293V19.153Z" fill="#113760"/>
<path d="M4.368 17.7593H5.3443C5.71411 17.7593 5.99024 17.6818 6.17268 17.527C6.35512 17.3721 6.44634 17.1567 6.44634 16.8809C6.44634 16.6002 6.35512 16.3824 6.17268 16.2276C5.99024 16.0727 5.71411 15.9953 5.3443 15.9953H4.368V17.7593Z" fill="#113760"/>
<path fill-rule="evenodd" clip-rule="evenodd" d="M3.16981 11.9259C1.41917 11.9259 0 13.3188 0 15.037V20.2222C0 21.9404 1.41917 23.3333 3.16981 23.3333H17.9623C19.7129 23.3333 21.1321 21.9404 21.1321 20.2222V15.037C21.1321 13.3188 19.7129 11.9259 17.9623 11.9259H3.16981ZM15.8235 18.2674V20.1185H14.6253V15.037H18.5379V15.9807H15.8235V17.3237H18.2199V18.2674H15.8235ZM8.51474 20.1185V15.037H10.8667C11.4289 15.037 11.9244 15.1435 12.3534 15.3564C12.7824 15.5645 13.1177 15.8573 13.3593 16.2348C13.6009 16.6123 13.7217 17.06 13.7217 17.5778C13.7217 18.0908 13.6009 18.5384 13.3593 18.9207C13.1177 19.2982 12.7824 19.5934 12.3534 19.8064C11.9244 20.0145 11.4289 20.1185 10.8667 20.1185H8.51474ZM3.16981 15.037V20.1185H4.368V18.7175H5.41087C5.87436 18.7175 6.27376 18.6449 6.60906 18.4997C6.94435 18.3497 7.20322 18.1367 7.38566 17.8609C7.5681 17.585 7.65932 17.2584 7.65932 16.8809C7.65932 16.4986 7.5681 16.1695 7.38566 15.8936C7.20322 15.6178 6.94435 15.4073 6.60906 15.2621C6.27376 15.112 5.87436 15.037 5.41087 15.037H3.16981Z" fill="#113760"/>
</svg>
