<svg width="24" height="24" viewBox="0 0 24 24" fill="none" xmlns="http://www.w3.org/2000/svg">
<path d="M18.0749 1.55469L22.2479 5.90469V22.4467H6.65918V22.5007H22.3012V5.95944L18.0749 1.55469Z" fill="#878787"/>
<path d="M18.0232 1.5H6.60596V22.446H22.248V5.90475L18.0232 1.5Z" fill="white"/>
<path d="M6.49123 2.625H1.69873V7.74525H16.7737V2.625H6.49123Z" fill="#878787"/>
<path d="M16.8541 7.65916H1.79639V2.53516H16.8541V7.65916Z" fill="#D92D20"/>
<path d="M6.78884 3.39806H5.80859V6.99806H6.57959V5.78381L6.74984 5.79356C6.91533 5.79128 7.07929 5.76163 7.23509 5.70581C7.37206 5.6593 7.49794 5.585 7.60484 5.48756C7.71447 5.39564 7.8006 5.27891 7.85609 5.14706C7.93203 4.92859 7.95891 4.69609 7.93484 4.46606C7.93057 4.3017 7.90175 4.1389 7.84934 3.98306C7.80212 3.87042 7.7319 3.76887 7.64317 3.68493C7.55445 3.60098 7.44918 3.53648 7.33409 3.49556C7.23488 3.45881 7.13206 3.43267 7.02734 3.41756C6.94824 3.40468 6.86824 3.39816 6.78809 3.39806M6.64634 5.11856H6.57959V4.00856H6.72434C6.78823 4.00395 6.85233 4.01376 6.91192 4.03726C6.9715 4.06075 7.02505 4.09734 7.06859 4.14431C7.15883 4.26507 7.20704 4.41206 7.20584 4.56281C7.20584 4.74731 7.20584 4.91456 7.03934 5.03231C6.91942 5.09836 6.78287 5.12882 6.64634 5.11856ZM9.39959 3.38831C9.31634 3.38831 9.23534 3.39431 9.17834 3.39656L8.99984 3.40106H8.41484V7.00106H9.10334C9.36643 7.00783 9.62831 6.96324 9.87434 6.86981C10.0724 6.79158 10.2478 6.66498 10.3843 6.50156C10.5182 6.33742 10.6137 6.14552 10.6641 5.93981C10.7232 5.70725 10.752 5.46801 10.7496 5.22806C10.7643 4.94468 10.7423 4.66058 10.6843 4.38281C10.6288 4.17858 10.5261 3.99026 10.3843 3.83306C10.2732 3.70594 10.1365 3.60371 9.98309 3.53306C9.85171 3.47216 9.71346 3.42733 9.57134 3.39956C9.51483 3.3903 9.45761 3.38603 9.40034 3.38681M9.26384 6.33956H9.18884V4.04156H9.19859C9.35322 4.02368 9.50968 4.05158 9.64859 4.12181C9.75034 4.20305 9.83325 4.30541 9.89159 4.42181C9.95456 4.54431 9.99086 4.67876 9.99809 4.81631C10.0048 4.98131 9.99809 5.11631 9.99809 5.22806C10.0009 5.35678 9.99259 5.4855 9.97334 5.61281C9.94975 5.74336 9.90704 5.86972 9.84659 5.98781C9.77831 6.09794 9.68504 6.19044 9.57434 6.25781C9.48188 6.31781 9.37225 6.34575 9.26234 6.33731M13.0723 3.40106H11.2498V7.00106H12.0208V5.57306H12.9958V4.90406H12.0208V4.07006H13.0708V3.40106" fill="#878787"/>
<path d="M16.3355 15.1921C16.3355 15.1921 18.7265 14.7586 18.7265 15.5754C18.7265 16.3921 17.2453 16.0599 16.3355 15.1921ZM14.5678 15.2544C14.1878 15.3381 13.8176 15.461 13.463 15.6211L13.763 14.9461C14.063 14.2711 14.3743 13.3509 14.3743 13.3509C14.7314 13.954 15.1479 14.5198 15.6178 15.0399C15.2641 15.0926 14.9135 15.1647 14.5678 15.2559V15.2544ZM13.6213 10.3794C13.6213 9.66761 13.8515 9.47336 14.0308 9.47336C14.21 9.47336 14.4118 9.55961 14.4185 10.1776C14.36 10.799 14.2299 11.4116 14.0308 12.0031C13.757 11.5068 13.6158 10.9484 13.6205 10.3816L13.6213 10.3794ZM10.1345 18.2664C9.40102 17.8276 11.6728 16.4769 12.0845 16.4334C12.0823 16.4341 10.9025 18.7254 10.1345 18.2664ZM19.4248 15.6721C19.4173 15.5971 19.3498 14.7669 17.8723 14.8021C17.2564 14.7913 16.6408 14.8347 16.0325 14.9319C15.4429 14.3384 14.9354 13.6687 14.5235 12.9406C14.7829 12.1901 14.94 11.4081 14.9908 10.6156C14.969 9.71561 14.7538 9.19961 14.0638 9.20711C13.3738 9.21461 13.2733 9.81836 13.364 10.7169C13.4528 11.3207 13.6205 11.9102 13.8628 12.4704C13.8628 12.4704 13.544 13.4626 13.1225 14.4496C12.701 15.4366 12.413 15.9541 12.413 15.9541C11.68 16.1925 10.9899 16.547 10.3693 17.0041C9.75127 17.5794 9.50002 18.0211 9.82552 18.4629C10.106 18.8439 11.0878 18.9301 11.9653 17.7804C12.4307 17.1859 12.8566 16.5616 13.2403 15.9114C13.2403 15.9114 14.5783 15.5446 14.9945 15.4441C15.4108 15.3436 15.914 15.2641 15.914 15.2641C15.914 15.2641 17.1358 16.4934 18.314 16.4499C19.4923 16.4064 19.4353 15.7456 19.4278 15.6736" fill="#D92D20"/>
<path d="M17.9653 1.55859V5.96334H22.1901L17.9653 1.55859Z" fill="#878787"/>
<path d="M18.0234 1.5V5.90475H22.2482L18.0234 1.5Z" fill="white"/>
<path d="M6.73123 3.34337H5.75098V6.94337H6.52498V5.72987L6.69598 5.73962C6.86146 5.73734 7.02542 5.70769 7.18123 5.65187C7.31819 5.60537 7.44407 5.53106 7.55098 5.43362C7.65978 5.34145 7.74512 5.22474 7.79998 5.09312C7.87591 4.87466 7.9028 4.64215 7.87873 4.41212C7.87445 4.24776 7.84563 4.08496 7.79323 3.92912C7.746 3.81648 7.67578 3.71494 7.58706 3.63099C7.49833 3.54704 7.39306 3.48255 7.27798 3.44162C7.17831 3.40452 7.07498 3.37812 6.96973 3.36287C6.89063 3.34999 6.81062 3.34347 6.73048 3.34337M6.58873 5.06387H6.52198V3.95387H6.66748C6.73136 3.94926 6.79547 3.95907 6.85505 3.98257C6.91464 4.00607 6.96818 4.04265 7.01173 4.08962C7.10197 4.21038 7.15017 4.35737 7.14898 4.50812C7.14898 4.69262 7.14898 4.85987 6.98248 4.97762C6.86256 5.04368 6.726 5.07339 6.58948 5.06312M9.34198 3.33362C9.25873 3.33362 9.17773 3.33962 9.12073 3.34187L8.94448 3.34637H8.35948V6.94637H9.04798C9.31106 6.95314 9.57295 6.90856 9.81898 6.81512C10.0171 6.73689 10.1924 6.61029 10.329 6.44687C10.4628 6.28274 10.5584 6.09083 10.6087 5.88512C10.6679 5.65257 10.6966 5.41332 10.6942 5.17337C10.7089 4.88999 10.687 4.60589 10.629 4.32812C10.5735 4.12389 10.4707 3.93557 10.329 3.77837C10.2178 3.65125 10.0811 3.54903 9.92773 3.47837C9.79635 3.41747 9.6581 3.37265 9.51598 3.34487C9.45946 3.33561 9.40224 3.33134 9.34498 3.33212M9.20848 6.28487H9.13348V3.98687H9.14323C9.29785 3.96899 9.45432 3.9969 9.59323 4.06712C9.69497 4.14837 9.77788 4.25072 9.83623 4.36712C9.89919 4.48962 9.93549 4.62408 9.94273 4.76162C9.94948 4.92662 9.94273 5.06162 9.94273 5.17337C9.9455 5.30209 9.93722 5.43082 9.91798 5.55812C9.89438 5.68867 9.85167 5.81503 9.79123 5.93312C9.72294 6.04325 9.62967 6.13575 9.51898 6.20312C9.42651 6.26312 9.31688 6.29106 9.20698 6.28262M13.0147 3.34637H11.1922V6.94637H11.9632V5.51837H12.9382V4.84937H11.9632V4.01537H13.0132V3.34637" fill="white"/>
</svg>
