<svg width="28" height="28" viewBox="0 0 28 28" fill="none" xmlns="http://www.w3.org/2000/svg">
<g clip-path="url(#clip0_222_2189)">
<path d="M4.75488 3.62963C4.75488 1.62504 6.41058 0 8.45299 0H18.2344C19.2152 0 20.1558 0.382406 20.8494 1.06309L26.917 7.01842C27.6106 7.69911 28.0002 8.62232 28.0002 9.58496V24.3704C28.0002 26.375 26.3445 28 24.3021 28H8.45299C6.41058 28 4.75488 26.375 4.75488 24.3704V21.7778H5.81148V24.3704C5.81148 25.8022 6.99413 26.963 8.45299 26.963H24.3021C25.761 26.963 26.9436 25.8022 26.9436 24.3704V9.58496C26.9436 9.32138 26.9027 9.06194 26.8244 8.81481H22.7172C20.6748 8.81481 19.0191 7.18977 19.0191 5.18519V1.15406C18.7673 1.07717 18.5029 1.03704 18.2344 1.03704H8.45299C6.99413 1.03704 5.81148 2.19778 5.81148 3.62963V12.4444H4.75488V3.62963ZM20.0757 1.7707V5.18519C20.0757 6.61703 21.2583 7.77778 22.7172 7.77778H26.1961C26.1874 7.76904 26.1787 7.76035 26.1699 7.75172L20.1022 1.79639C20.0934 1.78776 20.0846 1.77919 20.0757 1.7707Z" fill="#113760"/>
<path d="M9.71289 19.1529H10.8076C11.1527 19.1529 11.451 19.09 11.7025 18.9642C11.9589 18.8335 12.1562 18.6496 12.2942 18.4125C12.4372 18.1754 12.5087 17.8971 12.5087 17.5777C12.5087 17.2534 12.4372 16.9752 12.2942 16.7429C12.1562 16.5057 11.9589 16.3242 11.7025 16.1984C11.451 16.0678 11.1527 16.0024 10.8076 16.0024H9.71289V19.1529Z" fill="#113760"/>
<path fill-rule="evenodd" clip-rule="evenodd" d="M0 15.037C0 13.3188 1.41917 11.9259 3.16981 11.9259H17.9623C19.7129 11.9259 21.1321 13.3188 21.1321 15.037V20.2222C21.1321 21.9404 19.7129 23.3333 17.9623 23.3333H3.16981C1.41917 23.3333 0 21.9404 0 20.2222V15.037ZM15.8235 20.1185V18.2674H18.2199V17.3237H15.8235V15.9807H18.5379V15.037H14.6253V20.1185H15.8235ZM8.51474 15.037V20.1185H10.8667C11.4289 20.1185 11.9244 20.0145 12.3534 19.8064C12.7824 19.5934 13.1177 19.2982 13.3593 18.9207C13.6009 18.5384 13.7217 18.0908 13.7217 17.5778C13.7217 17.06 13.6009 16.6123 13.3593 16.2348C13.1177 15.8573 12.7824 15.5645 12.3534 15.3564C11.9244 15.1435 11.4289 15.037 10.8667 15.037H8.51474ZM6.60906 18.4997C6.27376 18.6449 5.87436 18.7175 5.41087 18.7175H4.368V20.1185H3.16981V15.037H4.29034H5.41087C5.87436 15.037 6.27376 15.112 6.60906 15.2621C6.94435 15.4073 7.20322 15.6178 7.38566 15.8936C7.5681 16.1695 7.65932 16.4986 7.65932 16.8809C7.65932 17.2584 7.5681 17.585 7.38566 17.8609C7.20322 18.1367 6.94435 18.3497 6.60906 18.4997Z" fill="#113760"/>
<path d="M4.36816 17.7594H5.34446C5.71427 17.7594 5.9904 17.6819 6.17284 17.5271C6.35528 17.3722 6.4465 17.1568 6.4465 16.881C6.4465 16.6003 6.35528 16.3825 6.17284 16.2277C5.9904 16.0728 5.71427 15.9954 5.34446 15.9954H4.36816V17.7594Z" fill="#113760"/>
</g>
<defs>
<clipPath id="clip0_222_2189">
<rect width="28" height="28" fill="white"/>
</clipPath>
</defs>
</svg>
