<svg width="25" height="25" viewBox="0 0 25 25" fill="none" xmlns="http://www.w3.org/2000/svg">
<path d="M15.3056 11.1995C14.5245 11.7214 13.6061 12 12.6666 12C11.4068 12 10.1987 11.4996 9.30787 10.6088C8.41707 9.71796 7.91663 8.50978 7.91663 7.25C7.91663 6.31054 8.19521 5.39218 8.71714 4.61104C9.23908 3.82991 9.98093 3.22109 10.8489 2.86157C11.7168 2.50206 12.6719 2.40799 13.5933 2.59127C14.5147 2.77455 15.3611 3.22695 16.0254 3.89125C16.6897 4.55554 17.1421 5.40191 17.3254 6.32332C17.5086 7.24473 17.4146 8.1998 17.0551 9.06775C16.6955 9.9357 16.0867 10.6775 15.3056 11.1995ZM3.41663 20C3.41663 18.3075 4.80103 16.9341 6.79246 15.9522C8.7556 14.9843 11.1176 14.5 12.6666 14.5C14.2157 14.5 16.5777 14.9843 18.5408 15.9522C20.5322 16.9341 21.9166 18.3075 21.9166 20V22.5H3.41663V20Z" stroke="white"/>
</svg>
