<svg width="94" height="94" viewBox="0 0 94 94" fill="none" xmlns="http://www.w3.org/2000/svg">
<path d="M47 93.5C72.6812 93.5 93.5 72.6812 93.5 47C93.5 21.3188 72.6812 0.5 47 0.5C21.3188 0.5 0.5 21.3188 0.5 47C0.5 72.6812 21.3188 93.5 47 93.5Z" fill="black" fill-opacity="0.27"/>
<path d="M68.757 42.3851L35.308 25.6554C34.3624 25.1823 33.3115 24.9588 32.2552 25.0063C31.1989 25.0537 30.1723 25.3705 29.2729 25.9266C28.3736 26.4827 27.6314 27.2595 27.1169 28.1833C26.6024 29.1071 26.3327 30.1471 26.3335 31.2044V62.8038C26.3327 63.8611 26.6024 64.9011 27.1169 65.8249C27.6314 66.7487 28.3736 67.5255 29.2729 68.0816C30.1723 68.6377 31.1989 68.9545 32.2552 69.002C33.3115 69.0494 34.3624 68.8259 35.308 68.3528L68.757 51.6231C69.6141 51.1936 70.3347 50.534 70.8383 49.7183C71.3419 48.9025 71.6087 47.9628 71.6087 47.0041C71.6087 46.0454 71.3419 45.1057 70.8383 44.2899C70.3347 43.4742 69.6141 42.8147 68.757 42.3851Z" fill="white" fill-opacity="0.7"/>
</svg>
