<svg width="30" height="22" viewBox="0 0 30 22" fill="none" xmlns="http://www.w3.org/2000/svg">
<path d="M5.32906 4.37207L5.32963 4.37157C7.71121 2.28323 10.9569 0.55 14.9974 0.55C19.0379 0.55 22.2836 2.28323 24.6652 4.37157L24.6657 4.37207C27.0369 6.44547 28.6214 8.93139 29.3682 10.6186L29.3682 10.6188C29.4773 10.8648 29.4773 11.1352 29.3682 11.3812L29.3682 11.3814C28.6216 13.0682 27.0371 15.5496 24.6653 17.6283L24.6652 17.6284C22.2836 19.7168 19.0379 21.45 14.9974 21.45C10.9569 21.45 7.71121 19.7168 5.32963 17.6284L5.32906 17.6279C2.95781 15.5544 1.37368 13.0687 0.632385 11.3827L0.631761 11.3812C0.522746 11.1352 0.522747 10.8648 0.631763 10.6188L0.632383 10.6173C1.37368 8.93126 2.95781 6.44557 5.32906 4.37207Z" stroke="#113760" strokeWidth="1.1"/>
<path d="M8.05 11.166C8.05 9.32276 8.78223 7.555 10.0856 6.25162C11.389 4.94825 13.1567 4.21602 15 4.21602C16.8433 4.21602 18.611 4.94825 19.9144 6.25162C21.2178 7.555 21.95 9.32276 21.95 11.166C21.95 13.0093 21.2178 14.777 19.9144 16.0804C18.611 17.3838 16.8433 18.116 15 18.116C13.1567 18.116 11.389 17.3838 10.0856 16.0804C8.78223 14.777 8.05 13.0093 8.05 11.166Z" stroke="#113760" strokeWidth="1.1"/>
<path d="M15.0003 7.59466C15.0003 9.56463 13.3986 11.1663 11.4286 11.1663C11.0324 11.1663 10.6529 11.0993 10.2958 10.9821C9.98883 10.8817 9.63167 11.0714 9.64283 11.3951C9.65958 11.7802 9.71538 12.1652 9.82141 12.5503C10.586 15.4076 13.527 17.1041 16.3843 16.3395C19.2416 15.575 20.9381 12.634 20.1735 9.7767C19.5541 7.46073 17.506 5.90372 15.2291 5.80885C14.9054 5.79769 14.7156 6.14927 14.8161 6.46179C14.9333 6.81895 15.0003 7.19844 15.0003 7.59466Z" fill="#113760"/>
</svg>
